<?xml version="1.0" encoding="UTF-8" standalone="no"?>
<!DOCTYPE svg PUBLIC "-//W3C//DTD SVG 1.1//EN" "http://www.w3.org/Graphics/SVG/1.1/DTD/svg11.dtd">
<svg width="100%" height="100%" viewBox="0 0 143 142" version="1.1" xmlns="http://www.w3.org/2000/svg" xmlns:xlink="http://www.w3.org/1999/xlink" xml:space="preserve" xmlns:serif="http://www.serif.com/" style="fill-rule:evenodd;clip-rule:evenodd;stroke-linejoin:round;stroke-miterlimit:2;">
    <g id="layer101">
        <path d="M83,139.2C75.9,136.8 73.5,135.5 68.2,131.3C61.6,125.9 8.1,60.5 5.1,54C2.8,49.2 2.5,47.2 2.5,38C2.5,28.4 2.8,27 5.4,22C9.2,14.6 15.2,8.5 22.5,4.7C28.5,1.5 28.5,1.5 74.5,1.2C115.8,1 121,1.1 124.9,2.6C131,4.9 137.3,11 139.9,17.1C142,22 142.1,22.9 141.8,64.8C141.5,107.5 141.5,107.5 137.9,115.1C133.1,125.1 126,132.1 116.1,136.9C109.2,140.1 107.6,140.5 98.5,140.7C90.9,140.9 87.2,140.6 83,139.2ZM103.2,132.4C103.5,129.1 103.9,128.7 109.8,126.3C116.2,123.8 116.2,123.8 118.5,126C120.9,128.3 120.9,128.3 125.1,124.1C129.3,119.9 129.3,119.9 127,117.5C124.8,115.2 124.8,115.2 127.3,108.8C129.7,102.9 130.1,102.5 133.4,102.2C137,101.9 137,101.9 137,95.4C137,89 137,89 133.3,89C129.6,89 129.4,88.8 127.2,82.9C124.8,76.8 124.8,76.8 127.1,74.4C129.4,72 129.4,72 125,67.5C120.6,63 120.6,63 117.9,65.6C115.4,68 115,68.1 112.9,66.7C111.6,65.9 108.8,64.7 106.8,64C103.4,63 103,62.5 103,59.4C103,56 103,56 96.6,56C90.1,56 90.1,56 89.8,59.6C89.5,62.9 89.1,63.3 83.5,65.5C77.5,68 77.5,68 75,65.5C72.6,63 72.6,63 68.3,67.2C64,71.4 64,71.4 66.5,74C69,76.6 69,76.6 66.5,82.5C64.3,88.1 63.9,88.5 60.6,88.8C57,89.1 57,89.1 57,95.6C57,102 57,102 60.4,102C63.5,102 64,102.4 65,105.8C65.7,107.8 66.9,110.6 67.7,111.9C69.1,114 69,114.4 66.6,116.9C64,119.6 64,119.6 68.5,124C73,128.4 73,128.4 75.4,126.1C77.8,123.8 77.8,123.8 83.9,126.2C89.8,128.4 90,128.6 90,132.3C90,136 90,136 96.4,136C102.9,136 102.9,136 103.2,132.4ZM84.5,133.1C83.9,132.6 82.4,131.9 81,131.6C78.5,130.9 78.5,130.9 81,132.4C83.8,134.1 86,134.5 84.5,133.1ZM115,130.9C115,130.4 113.7,130.6 112,131.5C110.4,132.4 109,133.2 109,133.5C109,133.7 110.4,133.4 112,132.9C113.7,132.3 115,131.4 115,130.9ZM61.1,110.7C60.3,108.7 59.3,108 57.5,108C54.9,108 54.9,108 57.7,111.5C60.7,115.3 62.6,114.8 61.1,110.7ZM133.9,111C134.4,109.4 134.7,108 134.5,108C134.2,108 133.4,109.4 132.5,111C131.6,112.7 131.4,114 131.9,114C132.4,114 133.3,112.7 133.9,111ZM55.4,84C59.3,84 59.9,83.7 61,81C62.2,78.1 62.1,77.7 59.4,74.9C56.6,71.9 56.6,71.9 64.8,63.8C72.9,55.6 72.9,55.6 75.9,58.4C78.7,61.1 79.1,61.2 82,60C84.7,58.9 85,58.3 85,54.4C85,50 85,50 97,50C109,50 109,50 109,54.5C109,58.5 109.3,59.2 111.7,60.1C113.9,60.9 114.7,60.7 117,58.5C118.4,57.1 120,56 120.5,56C121,56 125,59.5 129.2,63.7L137,71.5L137,51.2C137,32.6 136.9,31 135.3,31C134.1,31 132.9,32.6 131.8,35.2C130.2,38.9 130.2,39.5 131.5,41C132.9,42.5 132.8,42.9 131,44.5C129.1,46.2 128.8,46.2 127.4,44.8C125.9,43.4 125.4,43.4 121.9,44.9C119,46.1 118,47.1 118,48.8C118,50.6 117.4,51 115,51C112.5,51 112,50.6 112,48.5C112,47.1 111.4,46 110.8,46C110.1,46 108.2,45.3 106.6,44.5C104,43.1 103.5,43.1 102.1,44.4C100.8,45.8 100.4,45.8 98.8,44.3C97.2,42.8 97.1,42.5 98.5,41C99.9,39.5 99.9,39 98.5,36.4C97.7,34.8 97,32.9 97,32.3C97,31.6 95.9,31 94.5,31C92.4,31 92,30.5 92,28C92,25.6 92.4,25 94.3,25C95.9,25 96.9,24 98.1,21.1C99.6,17.6 99.6,17.1 98.2,15.6C96.8,14.2 96.8,13.9 98.5,12C100.1,10.2 100.5,10.1 102,11.5C103.5,12.8 104.1,12.8 107.8,11.2C110.4,10.1 112,8.9 112,7.8C112,6.1 110.1,6 85.3,6L58.6,6L64.5,12C70.4,18 70.4,18 67.7,20.8C65.8,22.7 65.2,24.2 65.7,25.8C66.1,27.6 66.9,28 70.6,28C75,28 75,28 75,37.5C75,47 75,47 70.6,47C65,47 63.9,49.2 67.5,53C68.9,54.4 70,56 70,56.5C70,57.8 58.8,69 57.6,69C57,69 55.4,67.9 54,66.5C50.2,62.9 48,64 48,69.6C48,74 48,74 38.5,74C29,74 29,74 29,69.6C29,65.9 28.6,65.1 26.8,64.7C25.5,64.3 23.9,64.7 22.9,65.6C21.3,67.1 22.2,68.5 35.8,85L50.5,102.8L50.8,93.4C51.1,84 51.1,84 55.4,84ZM137,78.3C137,72.7 137,72.7 134.5,75C133.1,76.3 132,77.7 132,78.1C132,80.4 134.2,84 135.5,84C136.7,84 137,82.7 137,78.3ZM42,64.5C42,62.3 42.5,61 43.3,61C44,61 46.3,60.1 48.5,59C52.4,57 52.4,57 54.9,59.5C57.4,62 57.4,62 60.2,59.3C63,56.6 63,56.6 60.5,54C58,51.4 58,51.4 60,47.5C61.1,45.3 62,43 62,42.3C62,41.5 63.3,41 65.5,41C68.9,41 69,40.9 69,37C69,33.2 68.9,33 65.8,33C62.8,33 62.3,32.5 60.2,27.8C58,22.7 58,22.7 60.2,20.3C62.4,17.9 62.4,17.9 59.7,15.3C57.1,12.6 57.1,12.6 54.7,14.8C52.4,17 52.4,17 47.2,14.8C42.4,12.8 42,12.3 42,9.3C42,6.1 41.9,6 38,6C34.1,6 34,6.1 34,9.3C34,12.3 33.6,12.8 28.8,14.8C23.6,17 23.6,17 21.6,15C19.6,13 19.6,13 16.8,15.7C14,18.4 14,18.4 16,20.5C18,22.6 18,22.6 15.8,27.8C13.8,32.6 13.3,33 10.3,33C7.1,33 7,33.1 7,37C7,40.9 7.1,41 10.3,41C13.3,41 13.8,41.4 15.8,46.2C18,51.4 18,51.4 15.4,54.1C12.7,56.9 12.7,56.9 15.2,59.9C17.7,62.8 17.7,62.8 20.7,59.9C23.6,56.9 23.6,56.9 28.8,59.2C33.5,61.3 34,61.8 34,64.8C34,67.9 34.2,68 38,68C41.9,68 42,67.9 42,64.5ZM10.8,49.3C10.6,48.4 10,47.5 9.3,47.3C8.6,47 8.4,47.6 8.7,48.9C9.3,51.4 11.3,51.7 10.8,49.3ZM122.1,38.7C128.8,34.2 129.6,24.8 123.9,19.1C113.6,8.8 96.8,21.1 103.5,34.1C107,40.7 115.8,42.9 122.1,38.7ZM11,24.5C11,24 10.5,24.2 10,25C9.5,25.8 9,27 9,27.5C9,28.1 9.5,27.8 10,27C10.5,26.2 11,25.1 11,24.5ZM136.4,22.8C134.6,16.7 132,13.6 130.6,15.9C129.5,17.5 133.4,25 135.3,25C136.7,25 137,24.5 136.4,22.8ZM127.8,11.2C128.1,10.1 124.5,7.9 120.3,6.6C118.5,6 118,6.3 118,7.7C118,8.8 119.4,10.1 121.8,11.1C125.8,12.9 127.2,13 127.8,11.2ZM28,9C28.8,8.5 29.1,8 28.5,8C28,8 26.8,8.5 26,9C25.2,9.5 25,10 25.5,10C26.1,10 27.2,9.5 28,9ZM53.5,8C55.3,6 55.2,6 51.7,6C49.3,6 48,6.5 48,7.3C48,10.5 50.9,10.9 53.5,8Z" style="fill:white;fill-rule:nonzero;"/>
        <path d="M93,116C85.4,114.6 79.6,109.6 77.1,102.1C71.9,86.5 87.5,70.9 103.1,76.1C112,79.1 117.2,86.4 117.2,96.1C117.2,109.2 105.9,118.4 93,116ZM103.6,109.4C108.1,107.2 111.2,102.8 111.8,97.4C113.4,83.1 96.1,75 86,85.5C74.3,97.6 88.3,116.7 103.6,109.4Z" style="fill:white;fill-rule:nonzero;"/>
        <g transform="matrix(1,0,0,1,0.661287,7.51462)">
            <path d="M108.081,87.036C108.081,86.256 107.448,85.623 106.669,85.623L103.843,85.623C103.063,85.623 102.43,86.256 102.43,87.036L102.43,89.862C102.43,90.641 103.063,91.274 103.843,91.274L106.669,91.274C107.448,91.274 108.081,90.641 108.081,89.862L108.081,87.036Z" style="fill:white;"/>
        </g>
        <g transform="matrix(1,0,0,1,-17.8547,7.33427)">
            <path d="M108.081,87.036C108.081,86.256 107.448,85.623 106.669,85.623L103.843,85.623C103.063,85.623 102.43,86.256 102.43,87.036L102.43,89.862C102.43,90.641 103.063,91.274 103.843,91.274L106.669,91.274C107.448,91.274 108.081,90.641 108.081,89.862L108.081,87.036Z" style="fill:white;"/>
        </g>
        <g transform="matrix(1,0,0,1,-8.47558,7.28195)">
            <path d="M108.081,87.036C108.081,86.256 107.448,85.623 106.669,85.623L103.843,85.623C103.063,85.623 102.43,86.256 102.43,87.036L102.43,89.862C102.43,90.641 103.063,91.274 103.843,91.274L106.669,91.274C107.448,91.274 108.081,90.641 108.081,89.862L108.081,87.036Z" style="fill:white;"/>
        </g>
        <g transform="matrix(1,0,0,1,-8.47558,16.9007)">
            <path d="M108.081,87.036C108.081,86.256 107.448,85.623 106.669,85.623L103.843,85.623C103.063,85.623 102.43,86.256 102.43,87.036L102.43,89.862C102.43,90.641 103.063,91.274 103.843,91.274L106.669,91.274C107.448,91.274 108.081,90.641 108.081,89.862L108.081,87.036Z" style="fill:white;"/>
        </g>
        <g transform="matrix(1,0,0,1,-8.47558,-2.33677)">
            <path d="M108.081,87.036C108.081,86.256 107.448,85.623 106.669,85.623L103.843,85.623C103.063,85.623 102.43,86.256 102.43,87.036L102.43,89.862C102.43,90.641 103.063,91.274 103.843,91.274L106.669,91.274C107.448,91.274 108.081,90.641 108.081,89.862L108.081,87.036Z" style="fill:white;"/>
        </g>
        <path d="M114.89,20.539C118.929,20.539 122.209,23.818 122.209,27.858C122.209,31.897 118.929,35.177 114.89,35.177C110.85,35.177 107.57,31.897 107.57,27.858C107.57,23.818 110.85,20.539 114.89,20.539ZM116.986,25.236C118.506,26.334 118.848,28.46 117.749,29.979C116.651,31.499 114.525,31.841 113.006,30.743C111.486,29.644 111.144,27.519 112.242,25.999C113.341,24.479 115.466,24.137 116.986,25.236Z" style="fill:white;"/>
        <path d="M29.7,50.8C24.6,47.8 21.6,41.5 22.3,35.3C23.5,24.1 35,17.9 45.2,22.9C56.7,28.4 56.9,46 45.6,51.4C40.8,53.6 34.3,53.4 29.7,50.8ZM38.045,25.687C44.382,25.687 49.528,30.832 49.528,37.169C49.528,43.506 44.382,48.651 38.045,48.651C31.708,48.651 26.563,43.506 26.563,37.169C26.563,30.832 31.708,25.687 38.045,25.687Z" style="fill:white;"/>
    </g>
</svg>
