<?xml version="1.0" encoding="UTF-8" standalone="no"?>
<!DOCTYPE svg PUBLIC "-//W3C//DTD SVG 1.1//EN" "http://www.w3.org/Graphics/SVG/1.1/DTD/svg11.dtd">
<svg width="100%" height="100%" viewBox="0 0 2500 1959" version="1.1" xmlns="http://www.w3.org/2000/svg" xmlns:xlink="http://www.w3.org/1999/xlink" xml:space="preserve" xmlns:serif="http://www.serif.com/" style="fill-rule:evenodd;clip-rule:evenodd;stroke-linecap:round;stroke-linejoin:round;stroke-miterlimit:1.5;">
    <g transform="matrix(4.16667,0,0,4.16667,-416.667,-245.833)">
        <g id="benerator_icon" transform="matrix(0.68137,0,0,0.74203,350.797,240.815)">
            <path d="M83,139.2C75.9,136.8 73.5,135.5 68.2,131.3C61.6,125.9 8.1,60.5 5.1,54C2.8,49.2 2.5,47.2 2.5,38C2.5,28.4 2.8,27 5.4,22C9.2,14.6 15.2,8.5 22.5,4.7C28.5,1.5 28.5,1.5 74.5,1.2C115.8,1 121,1.1 124.9,2.6C131,4.9 137.3,11 139.9,17.1C142,22 142.1,22.9 141.8,64.8C141.5,107.5 141.5,107.5 137.9,115.1C133.1,125.1 126,132.1 116.1,136.9C109.2,140.1 107.6,140.5 98.5,140.7C90.9,140.9 87.2,140.6 83,139.2ZM103.2,132.4C103.5,129.1 103.9,128.7 109.8,126.3C116.2,123.8 116.2,123.8 118.5,126C120.9,128.3 120.9,128.3 125.1,124.1C129.3,119.9 129.3,119.9 127,117.5C124.8,115.2 124.8,115.2 127.3,108.8C129.7,102.9 130.1,102.5 133.4,102.2C137,101.9 137,101.9 137,95.4C137,89 137,89 133.3,89C129.6,89 129.4,88.8 127.2,82.9C124.8,76.8 124.8,76.8 127.1,74.4C129.4,72 129.4,72 125,67.5C120.6,63 120.6,63 117.9,65.6C115.4,68 115,68.1 112.9,66.7C111.6,65.9 108.8,64.7 106.8,64C103.4,63 103,62.5 103,59.4C103,56 103,56 96.6,56C90.1,56 90.1,56 89.8,59.6C89.5,62.9 89.1,63.3 83.5,65.5C77.5,68 77.5,68 75,65.5C72.6,63 72.6,63 68.3,67.2C64,71.4 64,71.4 66.5,74C69,76.6 69,76.6 66.5,82.5C64.3,88.1 63.9,88.5 60.6,88.8C57,89.1 57,89.1 57,95.6C57,102 57,102 60.4,102C63.5,102 64,102.4 65,105.8C65.7,107.8 66.9,110.6 67.7,111.9C69.1,114 69,114.4 66.6,116.9C64,119.6 64,119.6 68.5,124C73,128.4 73,128.4 75.4,126.1C77.8,123.8 77.8,123.8 83.9,126.2C89.8,128.4 90,128.6 90,132.3C90,136 90,136 96.4,136C102.9,136 102.9,136 103.2,132.4ZM84.5,133.1C83.9,132.6 82.4,131.9 81,131.6C78.5,130.9 78.5,130.9 81,132.4C83.8,134.1 86,134.5 84.5,133.1ZM115,130.9C115,130.4 113.7,130.6 112,131.5C110.4,132.4 109,133.2 109,133.5C109,133.7 110.4,133.4 112,132.9C113.7,132.3 115,131.4 115,130.9ZM61.1,110.7C60.3,108.7 59.3,108 57.5,108C54.9,108 54.9,108 57.7,111.5C60.7,115.3 62.6,114.8 61.1,110.7ZM133.9,111C134.4,109.4 134.7,108 134.5,108C134.2,108 133.4,109.4 132.5,111C131.6,112.7 131.4,114 131.9,114C132.4,114 133.3,112.7 133.9,111ZM55.4,84C59.3,84 59.9,83.7 61,81C62.2,78.1 62.1,77.7 59.4,74.9C56.6,71.9 56.6,71.9 64.8,63.8C72.9,55.6 72.9,55.6 75.9,58.4C78.7,61.1 79.1,61.2 82,60C84.7,58.9 85,58.3 85,54.4C85,50 85,50 97,50C109,50 109,50 109,54.5C109,58.5 109.3,59.2 111.7,60.1C113.9,60.9 114.7,60.7 117,58.5C118.4,57.1 120,56 120.5,56C121,56 125,59.5 129.2,63.7L137,71.5L137,51.2C137,32.6 136.9,31 135.3,31C134.1,31 132.9,32.6 131.8,35.2C130.2,38.9 130.2,39.5 131.5,41C132.9,42.5 132.8,42.9 131,44.5C129.1,46.2 128.8,46.2 127.4,44.8C125.9,43.4 125.4,43.4 121.9,44.9C119,46.1 118,47.1 118,48.8C118,50.6 117.4,51 115,51C112.5,51 112,50.6 112,48.5C112,47.1 111.4,46 110.8,46C110.1,46 108.2,45.3 106.6,44.5C104,43.1 103.5,43.1 102.1,44.4C100.8,45.8 100.4,45.8 98.8,44.3C97.2,42.8 97.1,42.5 98.5,41C99.9,39.5 99.9,39 98.5,36.4C97.7,34.8 97,32.9 97,32.3C97,31.6 95.9,31 94.5,31C92.4,31 92,30.5 92,28C92,25.6 92.4,25 94.3,25C95.9,25 96.9,24 98.1,21.1C99.6,17.6 99.6,17.1 98.2,15.6C96.8,14.2 96.8,13.9 98.5,12C100.1,10.2 100.5,10.1 102,11.5C103.5,12.8 104.1,12.8 107.8,11.2C110.4,10.1 112,8.9 112,7.8C112,6.1 110.1,6 85.3,6L58.6,6L64.5,12C70.4,18 70.4,18 67.7,20.8C65.8,22.7 65.2,24.2 65.7,25.8C66.1,27.6 66.9,28 70.6,28C75,28 75,28 75,37.5C75,47 75,47 70.6,47C65,47 63.9,49.2 67.5,53C68.9,54.4 70,56 70,56.5C70,57.8 58.8,69 57.6,69C57,69 55.4,67.9 54,66.5C50.2,62.9 48,64 48,69.6C48,74 48,74 38.5,74C29,74 29,74 29,69.6C29,65.9 28.6,65.1 26.8,64.7C25.5,64.3 23.9,64.7 22.9,65.6C21.3,67.1 22.2,68.5 35.8,85L50.5,102.8L50.8,93.4C51.1,84 51.1,84 55.4,84ZM137,78.3C137,72.7 137,72.7 134.5,75C133.1,76.3 132,77.7 132,78.1C132,80.4 134.2,84 135.5,84C136.7,84 137,82.7 137,78.3ZM42,64.5C42,62.3 42.5,61 43.3,61C44,61 46.3,60.1 48.5,59C52.4,57 52.4,57 54.9,59.5C57.4,62 57.4,62 60.2,59.3C63,56.6 63,56.6 60.5,54C58,51.4 58,51.4 60,47.5C61.1,45.3 62,43 62,42.3C62,41.5 63.3,41 65.5,41C68.9,41 69,40.9 69,37C69,33.2 68.9,33 65.8,33C62.8,33 62.3,32.5 60.2,27.8C58,22.7 58,22.7 60.2,20.3C62.4,17.9 62.4,17.9 59.7,15.3C57.1,12.6 57.1,12.6 54.7,14.8C52.4,17 52.4,17 47.2,14.8C42.4,12.8 42,12.3 42,9.3C42,6.1 41.9,6 38,6C34.1,6 34,6.1 34,9.3C34,12.3 33.6,12.8 28.8,14.8C23.6,17 23.6,17 21.6,15C19.6,13 19.6,13 16.8,15.7C14,18.4 14,18.4 16,20.5C18,22.6 18,22.6 15.8,27.8C13.8,32.6 13.3,33 10.3,33C7.1,33 7,33.1 7,37C7,40.9 7.1,41 10.3,41C13.3,41 13.8,41.4 15.8,46.2C18,51.4 18,51.4 15.4,54.1C12.7,56.9 12.7,56.9 15.2,59.9C17.7,62.8 17.7,62.8 20.7,59.9C23.6,56.9 23.6,56.9 28.8,59.2C33.5,61.3 34,61.8 34,64.8C34,67.9 34.2,68 38,68C41.9,68 42,67.9 42,64.5ZM10.8,49.3C10.6,48.4 10,47.5 9.3,47.3C8.6,47 8.4,47.6 8.7,48.9C9.3,51.4 11.3,51.7 10.8,49.3ZM122.1,38.7C128.8,34.2 129.6,24.8 123.9,19.1C113.6,8.8 96.8,21.1 103.5,34.1C107,40.7 115.8,42.9 122.1,38.7ZM11,24.5C11,24 10.5,24.2 10,25C9.5,25.8 9,27 9,27.5C9,28.1 9.5,27.8 10,27C10.5,26.2 11,25.1 11,24.5ZM136.4,22.8C134.6,16.7 132,13.6 130.6,15.9C129.5,17.5 133.4,25 135.3,25C136.7,25 137,24.5 136.4,22.8ZM127.8,11.2C128.1,10.1 124.5,7.9 120.3,6.6C118.5,6 118,6.3 118,7.7C118,8.8 119.4,10.1 121.8,11.1C125.8,12.9 127.2,13 127.8,11.2ZM28,9C28.8,8.5 29.1,8 28.5,8C28,8 26.8,8.5 26,9C25.2,9.5 25,10 25.5,10C26.1,10 27.2,9.5 28,9ZM53.5,8C55.3,6 55.2,6 51.7,6C49.3,6 48,6.5 48,7.3C48,10.5 50.9,10.9 53.5,8Z" style="fill-rule:nonzero;"/>
            <path d="M93,116C85.4,114.6 79.6,109.6 77.1,102.1C71.9,86.5 87.5,70.9 103.1,76.1C112,79.1 117.2,86.4 117.2,96.1C117.2,109.2 105.9,118.4 93,116ZM103.6,109.4C108.1,107.2 111.2,102.8 111.8,97.4C113.4,83.1 96.1,75 86,85.5C74.3,97.6 88.3,116.7 103.6,109.4Z" style="fill-rule:nonzero;"/>
            <g transform="matrix(1,0,0,1,0.661287,7.51462)">
                <path d="M108.081,86.921C108.081,86.205 107.448,85.623 106.669,85.623L103.843,85.623C103.063,85.623 102.43,86.205 102.43,86.921L102.43,89.977C102.43,90.693 103.063,91.274 103.843,91.274L106.669,91.274C107.448,91.274 108.081,90.693 108.081,89.977L108.081,86.921Z"/>
            </g>
            <g transform="matrix(1,0,0,1,-17.8547,7.33427)">
                <path d="M108.081,86.921C108.081,86.205 107.448,85.623 106.669,85.623L103.843,85.623C103.063,85.623 102.43,86.205 102.43,86.921L102.43,89.977C102.43,90.693 103.063,91.274 103.843,91.274L106.669,91.274C107.448,91.274 108.081,90.693 108.081,89.977L108.081,86.921Z"/>
            </g>
            <g transform="matrix(1,0,0,1,-8.47558,7.28195)">
                <path d="M108.081,86.921C108.081,86.205 107.448,85.623 106.669,85.623L103.843,85.623C103.063,85.623 102.43,86.205 102.43,86.921L102.43,89.977C102.43,90.693 103.063,91.274 103.843,91.274L106.669,91.274C107.448,91.274 108.081,90.693 108.081,89.977L108.081,86.921Z"/>
            </g>
            <g transform="matrix(1,0,0,1,-8.47558,16.9007)">
                <path d="M108.081,86.921C108.081,86.205 107.448,85.623 106.669,85.623L103.843,85.623C103.063,85.623 102.43,86.205 102.43,86.921L102.43,89.977C102.43,90.693 103.063,91.274 103.843,91.274L106.669,91.274C107.448,91.274 108.081,90.693 108.081,89.977L108.081,86.921Z"/>
            </g>
            <g transform="matrix(1,0,0,1,-8.47558,-2.33677)">
                <path d="M108.081,86.921C108.081,86.205 107.448,85.623 106.669,85.623L103.843,85.623C103.063,85.623 102.43,86.205 102.43,86.921L102.43,89.977C102.43,90.693 103.063,91.274 103.843,91.274L106.669,91.274C107.448,91.274 108.081,90.693 108.081,89.977L108.081,86.921Z"/>
            </g>
            <path d="M114.89,20.539C118.929,20.539 122.209,23.818 122.209,27.858C122.209,31.897 118.929,35.177 114.89,35.177C110.85,35.177 107.57,31.897 107.57,27.858C107.57,23.818 110.85,20.539 114.89,20.539ZM116.986,25.236C118.506,26.334 118.848,28.46 117.749,29.979C116.651,31.499 114.525,31.841 113.006,30.743C111.486,29.644 111.144,27.519 112.242,25.999C113.341,24.479 115.466,24.137 116.986,25.236Z"/>
            <path d="M29.7,50.8C24.6,47.8 21.6,41.5 22.3,35.3C23.5,24.1 35,17.9 45.2,22.9C56.7,28.4 56.9,46 45.6,51.4C40.8,53.6 34.3,53.4 29.7,50.8ZM38.045,25.687C44.382,25.687 49.528,30.832 49.528,37.169C49.528,43.506 44.382,48.651 38.045,48.651C31.708,48.651 26.563,43.506 26.563,37.169C26.563,30.832 31.708,25.687 38.045,25.687Z"/>
        </g>
        <g id="generate.svg" transform="matrix(0.254595,0,0,0.254595,533.046,228.227)">
            <path d="M12.41,148.02L245.35,253.69C252.15,256.78 259.84,256.78 266.64,253.69L499.58,148.02C516.13,140.51 516.13,115.5 499.58,107.99L266.65,2.31C259.893,-0.778 252.117,-0.778 245.36,2.31L12.41,107.98C-4.14,115.49 -4.14,140.51 12.41,148.02ZM499.59,236.3L441.5,209.97L279.86,283.24C272.3,286.67 264.27,288.41 256,288.41C247.73,288.41 239.71,286.67 232.14,283.24L70.51,209.97L12.41,236.3C-4.14,243.8 -4.14,268.8 12.41,276.3L245.35,381.89C252.15,384.97 259.84,384.97 266.64,381.89L499.59,276.3C516.14,268.8 516.14,243.8 499.59,236.3ZM499.59,364.1L441.72,337.87L279.86,411.24C272.3,414.67 264.27,416.41 256,416.41C247.73,416.41 239.71,414.67 232.14,411.24L70.29,337.87L12.41,364.1C-4.14,371.6 -4.14,396.6 12.41,404.1L245.35,509.69C252.15,512.77 259.84,512.77 266.64,509.69L499.59,404.1C516.14,396.6 516.14,371.6 499.59,364.1Z" style="fill:rgb(103,212,164);fill-rule:nonzero;"/>
        </g>
        <g id="generate.svg1" serif:id="generate.svg" transform="matrix(0.254595,0,0,0.254595,533.046,228.227)">
            <path d="M12.41,148.02L245.35,253.69C252.15,256.78 259.84,256.78 266.64,253.69L499.58,148.02C516.13,140.51 516.13,115.5 499.58,107.99L266.65,2.31C259.893,-0.778 252.117,-0.778 245.36,2.31L12.41,107.98C-4.14,115.49 -4.14,140.51 12.41,148.02ZM499.59,236.3L441.5,209.97L279.86,283.24C272.3,286.67 264.27,288.41 256,288.41C247.73,288.41 239.71,286.67 232.14,283.24L70.51,209.97L12.41,236.3C-4.14,243.8 -4.14,268.8 12.41,276.3L245.35,381.89C252.15,384.97 259.84,384.97 266.64,381.89L499.59,276.3C516.14,268.8 516.14,243.8 499.59,236.3ZM499.59,364.1L441.72,337.87L279.86,411.24C272.3,414.67 264.27,416.41 256,416.41C247.73,416.41 239.71,414.67 232.14,411.24L70.29,337.87L12.41,364.1C-4.14,371.6 -4.14,396.6 12.41,404.1L245.35,509.69C252.15,512.77 259.84,512.77 266.64,509.69L499.59,404.1C516.14,396.6 516.14,371.6 499.59,364.1Z" style="fill:rgb(103,212,164);fill-rule:nonzero;"/>
        </g>
        <g id="generate.svg2" serif:id="generate.svg" transform="matrix(0.254595,0,0,0.254595,533.046,385.331)">
            <path d="M12.41,148.02L245.35,253.69C252.15,256.78 259.84,256.78 266.64,253.69L499.58,148.02C516.13,140.51 516.13,115.5 499.58,107.99L266.65,2.31C259.893,-0.778 252.117,-0.778 245.36,2.31L12.41,107.98C-4.14,115.49 -4.14,140.51 12.41,148.02ZM499.59,236.3L441.5,209.97L279.86,283.24C272.3,286.67 264.27,288.41 256,288.41C247.73,288.41 239.71,286.67 232.14,283.24L70.51,209.97L12.41,236.3C-4.14,243.8 -4.14,268.8 12.41,276.3L245.35,381.89C252.15,384.97 259.84,384.97 266.64,381.89L499.59,276.3C516.14,268.8 516.14,243.8 499.59,236.3ZM499.59,364.1L441.72,337.87L279.86,411.24C272.3,414.67 264.27,416.41 256,416.41C247.73,416.41 239.71,414.67 232.14,411.24L70.29,337.87L12.41,364.1C-4.14,371.6 -4.14,396.6 12.41,404.1L245.35,509.69C252.15,512.77 259.84,512.77 266.64,509.69L499.59,404.1C516.14,396.6 516.14,371.6 499.59,364.1Z" style="fill:rgb(103,212,164);fill-rule:nonzero;"/>
        </g>
        <g id="generate.svg3" serif:id="generate.svg" transform="matrix(0.254595,0,0,0.254595,533.046,385.331)">
            <path d="M12.41,148.02L245.35,253.69C252.15,256.78 259.84,256.78 266.64,253.69L499.58,148.02C516.13,140.51 516.13,115.5 499.58,107.99L266.65,2.31C259.893,-0.778 252.117,-0.778 245.36,2.31L12.41,107.98C-4.14,115.49 -4.14,140.51 12.41,148.02ZM499.59,236.3L441.5,209.97L279.86,283.24C272.3,286.67 264.27,288.41 256,288.41C247.73,288.41 239.71,286.67 232.14,283.24L70.51,209.97L12.41,236.3C-4.14,243.8 -4.14,268.8 12.41,276.3L245.35,381.89C252.15,384.97 259.84,384.97 266.64,381.89L499.59,276.3C516.14,268.8 516.14,243.8 499.59,236.3ZM499.59,364.1L441.72,337.87L279.86,411.24C272.3,414.67 264.27,416.41 256,416.41C247.73,416.41 239.71,414.67 232.14,411.24L70.29,337.87L12.41,364.1C-4.14,371.6 -4.14,396.6 12.41,404.1L245.35,509.69C252.15,512.77 259.84,512.77 266.64,509.69L499.59,404.1C516.14,396.6 516.14,371.6 499.59,364.1Z" style="fill:rgb(103,212,164);fill-rule:nonzero;"/>
        </g>
        <g id="generate.svg4" serif:id="generate.svg" transform="matrix(0.254595,0,0,0.254595,533.046,76.4015)">
            <g>
                <path id="generate.svg5" serif:id="generate.svg" d="M12.41,148.02L245.35,253.69C252.15,256.78 259.84,256.78 266.64,253.69L499.58,148.02C516.13,140.51 516.13,115.5 499.58,107.99L266.65,2.31C259.893,-0.778 252.117,-0.778 245.36,2.31L12.41,107.98C-4.14,115.49 -4.14,140.51 12.41,148.02ZM499.59,236.3L441.5,209.97L279.86,283.24C272.3,286.67 264.27,288.41 256,288.41C247.73,288.41 239.71,286.67 232.14,283.24L70.51,209.97L12.41,236.3C-4.14,243.8 -4.14,268.8 12.41,276.3L245.35,381.89C252.15,384.97 259.84,384.97 266.64,381.89L499.59,276.3C516.14,268.8 516.14,243.8 499.59,236.3ZM499.59,364.1L441.72,337.87L279.86,411.24C272.3,414.67 264.27,416.41 256,416.41C247.73,416.41 239.71,414.67 232.14,411.24L70.29,337.87L12.41,364.1C-4.14,371.6 -4.14,396.6 12.41,404.1L245.35,509.69C252.15,512.77 259.84,512.77 266.64,509.69L499.59,404.1C516.14,396.6 516.14,371.6 499.59,364.1Z" style="fill:rgb(103,212,164);fill-rule:nonzero;"/>
            </g>
        </g>
        <g id="generate.svg6" serif:id="generate.svg" transform="matrix(0.254595,0,0,0.254595,533.046,76.4015)">
            <path d="M12.41,148.02L245.35,253.69C252.15,256.78 259.84,256.78 266.64,253.69L499.58,148.02C516.13,140.51 516.13,115.5 499.58,107.99L266.65,2.31C259.893,-0.778 252.117,-0.778 245.36,2.31L12.41,107.98C-4.14,115.49 -4.14,140.51 12.41,148.02ZM499.59,236.3L441.5,209.97L279.86,283.24C272.3,286.67 264.27,288.41 256,288.41C247.73,288.41 239.71,286.67 232.14,283.24L70.51,209.97L12.41,236.3C-4.14,243.8 -4.14,268.8 12.41,276.3L245.35,381.89C252.15,384.97 259.84,384.97 266.64,381.89L499.59,276.3C516.14,268.8 516.14,243.8 499.59,236.3ZM499.59,364.1L441.72,337.87L279.86,411.24C272.3,414.67 264.27,416.41 256,416.41C247.73,416.41 239.71,414.67 232.14,411.24L70.29,337.87L12.41,364.1C-4.14,371.6 -4.14,396.6 12.41,404.1L245.35,509.69C252.15,512.77 259.84,512.77 266.64,509.69L499.59,404.1C516.14,396.6 516.14,371.6 499.59,364.1Z" style="fill:rgb(103,212,164);fill-rule:nonzero;"/>
        </g>
        <g transform="matrix(1,0,0,1,-1.26948,0.00120272)">
            <g id="Layer1">
                <g transform="matrix(1.20986,0,0,1.03946,-66.2708,-11.579)">
                    <path d="M301.174,284.276L301.505,284.264L310.839,284.264L321.837,293.403L310.839,302.542L301.505,302.542L301.174,302.53L312.157,293.403L301.174,284.276Z" style="fill:rgb(182,196,196);"/>
                </g>
                <g transform="matrix(1.20986,0,0,1.03946,-81.2708,-11.579)">
                    <path d="M301.174,284.276L301.505,284.264L310.839,284.264L321.837,293.403L310.839,302.542L301.505,302.542L301.174,302.53L312.157,293.403L301.174,284.276Z" style="fill:rgb(182,196,196);"/>
                </g>
            </g>
            <g id="Layer11" serif:id="Layer1" transform="matrix(1,0,0,1,183.472,-0.360304)">
                <g transform="matrix(1.20986,0,0,1.03946,-66.2708,-11.579)">
                    <path d="M301.174,284.276L301.505,284.264L310.839,284.264L321.837,293.403L310.839,302.542L301.505,302.542L301.174,302.53L312.157,293.403L301.174,284.276Z" style="fill:rgb(182,196,196);"/>
                </g>
                <g transform="matrix(1.20986,0,0,1.03946,-81.2708,-11.579)">
                    <path d="M301.174,284.276L301.505,284.264L310.839,284.264L321.837,293.403L310.839,302.542L301.505,302.542L301.174,302.53L312.157,293.403L301.174,284.276Z" style="fill:rgb(182,196,196);"/>
                </g>
            </g>
            <g id="Layer12" serif:id="Layer1" transform="matrix(0.866025,-0.5,0.5,0.866025,79.246,120.772)">
                <g transform="matrix(1.20986,0,0,1.03946,-66.2708,-11.579)">
                    <path d="M301.174,284.276L301.505,284.264L310.839,284.264L321.837,293.403L310.839,302.542L301.505,302.542L301.174,302.53L312.157,293.403L301.174,284.276Z" style="fill:rgb(182,196,196);"/>
                </g>
                <g transform="matrix(1.20986,0,0,1.03946,-81.2708,-11.579)">
                    <path d="M301.174,284.276L301.505,284.264L310.839,284.264L321.837,293.403L310.839,302.542L301.505,302.542L301.174,302.53L312.157,293.403L301.174,284.276Z" style="fill:rgb(182,196,196);"/>
                </g>
            </g>
            <g id="Layer13" serif:id="Layer1" transform="matrix(0.866025,0.5,-0.5,0.866025,372.648,-37.1189)">
                <g transform="matrix(1.20986,0,0,1.03946,-66.2708,-11.579)">
                    <path d="M301.174,284.276L301.505,284.264L310.839,284.264L321.837,293.403L310.839,302.542L301.505,302.542L301.174,302.53L312.157,293.403L301.174,284.276Z" style="fill:rgb(182,196,196);"/>
                </g>
                <g transform="matrix(1.20986,0,0,1.03946,-81.2708,-11.579)">
                    <path d="M301.174,284.276L301.505,284.264L310.839,284.264L321.837,293.403L310.839,302.542L301.505,302.542L301.174,302.53L312.157,293.403L301.174,284.276Z" style="fill:rgb(182,196,196);"/>
                </g>
            </g>
        </g>
        <g id="rdd_notebook" transform="matrix(0.37681,0,0,0.37681,115.092,193.74)">
            <g transform="matrix(2.56271,0,0,2.55013,-283.802,-483.195)">
                <rect x="136.385" y="229.433" width="101" height="132" style="fill:rgb(182,196,196);"/>
            </g>
            <g transform="matrix(2.61431,0,0,2.65385,-299.907,-514.157)">
                <rect x="139.854" y="234.497" width="83.314" height="121.972" style="fill:none;stroke:rgb(107,126,139);stroke-width:0.65px;"/>
            </g>
            <g transform="matrix(2.65385,0,0,2.65385,-305.437,-514.157)">
                <rect x="139.854" y="240.598" width="76.075" height="109.77" style="fill:rgb(244,246,247);"/>
            </g>
            <g transform="matrix(2.65385,0,0,2.65385,-305.437,-514.157)">
                <rect x="219.877" y="257.445" width="6.581" height="17.11" style="fill:rgb(73,34,36);"/>
            </g>
            <g transform="matrix(2.65385,0,0,2.65385,-305.437,-514.157)">
                <rect x="219.877" y="286.927" width="6.581" height="17.11" style="fill:rgb(200,236,55);"/>
            </g>
            <g transform="matrix(2.65385,0,0,2.65385,-305.437,-435.915)">
                <rect x="219.877" y="286.927" width="6.581" height="17.11" style="fill:rgb(103,212,164);"/>
            </g>
            <g transform="matrix(2.44867,0,0,2.11922,-256.93,-363.645)">
                <rect x="236.402" y="279.962" width="1.408" height="8.141" style="fill:rgb(107,126,139);"/>
            </g>
            <g transform="matrix(2.65385,0,0,2.65385,-308.491,-516.924)">
                <circle cx="151.905" cy="271.254" r="5.254" style="fill:rgb(181,197,197);"/>
            </g>
            <g transform="matrix(2.65385,0,0,2.65385,-308.491,-449.859)">
                <circle cx="151.905" cy="271.254" r="5.254" style="fill:rgb(181,197,197);"/>
            </g>
            <g transform="matrix(2.65385,0,0,2.65385,-308.491,-382.795)">
                <circle cx="151.905" cy="271.254" r="5.254" style="fill:rgb(181,197,197);"/>
            </g>
            <g transform="matrix(2.72181,0,0,3.78587,-314.94,-777.241)">
                <rect x="139.854" y="233.275" width="80.024" height="1.222"/>
                <rect x="139.854" y="233.275" width="80.024" height="1.222" style="fill:rgb(135,153,161);"/>
            </g>
            <g transform="matrix(2.72181,0,0,3.69135,-314.94,-431.495)">
                <rect x="139.854" y="233.275" width="80.024" height="1.222"/>
                <rect x="139.854" y="233.275" width="80.024" height="1.222" style="fill:rgb(135,153,161);"/>
            </g>
            <g transform="matrix(0.698591,0,0,0.698591,38.4691,91.5203)">
                <path d="M383.5,0L55.5,0C38.131,0 24,14.131 24,31.5L24,152L7.5,152C3.358,152 0,155.357 0,159.5C0,163.643 3.358,167 7.5,167L24,167L24,248L7.5,248C3.358,248 0,251.357 0,255.5C0,259.643 3.358,263 7.5,263L24,263L24,344L7.5,344C3.358,344 0,347.357 0,351.5C0,355.643 3.358,359 7.5,359L24,359L24,479.5C24,496.869 38.131,511 55.5,511L383.5,511C400.869,511 415,496.869 415,479.5L415,228.002C415,223.859 411.642,220.502 407.5,220.502C403.358,220.502 400,223.859 400,228.002L400,479.5C400,488.599 392.598,496 383.5,496L55.5,496C46.402,496 39,488.599 39,479.5L39,479L335.5,479C339.642,479 343,475.643 343,471.5L343,415L359.5,415C372.458,415 383,404.458 383,391.5L383,343.5C383,330.542 372.458,320 359.5,320L343,320L343,303L359.5,303C372.458,303 383,292.458 383,279.5L383,231.5C383,218.542 372.458,208 359.5,208L343,208L343,191L359.5,191C372.458,191 383,180.458 383,167.5L383,119.5C383,106.542 372.458,96 359.5,96L343,96L343,39.5C343,35.357 339.642,32 335.5,32L39,32L39,31.5C39,22.401 46.402,15 55.5,15L383.5,15C392.598,15 400,22.401 400,31.5L400,191.499C400,195.642 403.358,198.999 407.5,198.999C411.642,198.999 415,195.642 415,191.499L415,31.5C415,14.131 400.869,0 383.5,0ZM359.5,335C364.187,335 368,338.813 368,343.5L368,391.5C368,396.187 364.187,400 359.5,400L343,400L343,335L359.5,335ZM359.5,223C364.187,223 368,226.813 368,231.5L368,279.5C368,284.187 364.187,288 359.5,288L343,288L343,223L359.5,223ZM359.5,111C364.187,111 368,114.813 368,119.5L368,167.5C368,172.187 364.187,176 359.5,176L343,176L343,111L359.5,111ZM328,47L328,464L39,464L39,359L48.909,359C52.283,372.759 64.715,383 79.5,383C96.869,383 111,368.869 111,351.5C111,334.131 96.869,320 79.5,320C64.715,320 52.284,330.241 48.909,344L39,344L39,263L48.909,263C52.283,276.759 64.715,287 79.5,287C96.869,287 111,272.869 111,255.5C111,238.131 96.869,224 79.5,224C64.715,224 52.284,234.241 48.909,248L39,248L39,167L48.909,167C52.283,180.759 64.715,191 79.5,191C96.869,191 111,176.869 111,159.5C111,142.131 96.869,128 79.5,128C64.715,128 52.284,138.241 48.909,152L39,152L39,47L328,47ZM71.5,344L64.822,344C67.559,338.666 73.104,335 79.5,335C88.598,335 96,342.402 96,351.5C96,360.598 88.598,368 79.5,368C73.104,368 67.559,364.334 64.822,359L71.5,359C75.642,359 79,355.643 79,351.5C79,347.357 75.642,344 71.5,344ZM71.5,248L64.822,248C67.559,242.666 73.104,239 79.5,239C88.598,239 96,246.402 96,255.5C96,264.598 88.598,272 79.5,272C73.104,272 67.559,268.334 64.822,263L71.5,263C75.642,263 79,259.643 79,255.5C79,251.357 75.642,248 71.5,248ZM71.5,152L64.822,152C67.559,146.666 73.104,143 79.5,143C88.598,143 96,150.402 96,159.5C96,168.598 88.598,176 79.5,176C73.104,176 67.559,172.334 64.822,167L71.5,167C75.642,167 79,163.643 79,159.5C79,155.357 75.642,152 71.5,152Z" style="fill-rule:nonzero;"/>
                <g transform="matrix(0.315925,0,0,0.315925,132.263,89.1339)">
                    <g id="_40-mind-map.svg" serif:id="40-mind map.svg">
                        <g>
                            <path d="M71.5,360C68.374,360 65.575,361.939 64.478,364.866L40.478,428.866C39.024,432.745 40.989,437.068 44.867,438.522C48.746,439.975 53.069,438.011 54.523,434.133L61.698,415L81.302,415L88.477,434.134C89.971,438.118 94.627,440.068 98.522,438.363C102.12,436.789 103.898,432.538 102.522,428.866L78.522,364.866C77.425,361.939 74.626,360 71.5,360ZM67.323,400L71.5,388.86L75.677,400L67.323,400Z" style="fill-rule:nonzero;"/>
                            <path d="M383.5,479L423.5,479C427.643,479 431,475.643 431,471.5L431,439.5C431,435.357 427.643,432 423.5,432L422.983,432C422.994,431.835 423,431.668 423,431.5L423,407.5C423,403.357 419.643,400 415.5,400L383.5,400C379.357,400 376,403.357 376,407.5L376,471.5C376,475.643 379.357,479 383.5,479ZM391,415L408,415L408,431.5C408,431.668 408.006,431.835 408.017,432L391.5,432C391.332,432 391.165,432.006 391,432.017L391,415ZM391,446.983C391.165,446.994 391.332,447 391.5,447L416,447L416,464L391,464L391,446.983Z" style="fill-rule:nonzero;"/>
                            <path d="M439.5,231C478.925,231 511,198.925 511,159.5C511,120.075 478.925,88 439.5,88C408.686,88 382.363,107.594 372.333,134.977L318.126,121.426C314.132,89.208 296.557,58.87 268.541,36.577C265.298,33.999 260.583,34.536 258.002,37.776C255.423,41.017 255.96,45.736 259.201,48.315C288.091,71.301 304,102.264 304,135.5C304,201.944 239.178,256 159.5,256C79.822,256 15,201.944 15,135.5C15,69.056 79.822,15 159.5,15C183.674,15 207.594,20.082 228.676,29.698C232.444,31.416 236.893,29.755 238.613,25.986C240.332,22.217 238.67,17.769 234.901,16.049C211.879,5.55 185.806,0 159.5,0C71.552,0 0,60.785 0,135.5C0,190.396 38.628,237.772 94.005,259.043L66.339,328.207C29.317,330.863 0,361.813 0,399.5C0,438.925 32.075,471 71.5,471C110.925,471 143,438.925 143,399.5C143,363.73 116.595,334.013 82.254,328.81L108.249,263.824C124.341,268.475 141.58,271 159.5,271C187.075,271 213.037,265.022 235.688,254.516L351.892,386.214C337.242,399.316 328,418.346 328,439.5C328,478.925 360.075,511 399.5,511C438.925,511 471,478.925 471,439.5C471,400.075 438.925,368 399.5,368C386.635,368 374.564,371.433 364.124,377.404L249.389,247.372C290.902,223.223 318.349,182.852 318.976,137.101L368.71,149.535C368.253,152.794 368,156.118 368,159.501C368,198.925 400.075,231 439.5,231ZM128,399.5C128,430.654 102.654,456 71.5,456C40.346,456 15,430.654 15,399.5C15,368.355 40.33,343.016 71.472,343.001C71.481,343.001 71.49,343.002 71.498,343.002C71.505,343.002 71.511,343.001 71.518,343.001C102.664,343.01 128,368.352 128,399.5ZM456,439.5C456,470.654 430.654,496 399.5,496C368.346,496 343,470.654 343,439.5C343,408.346 368.346,383 399.5,383C430.654,383 456,408.346 456,439.5ZM439.5,103C470.654,103 496,128.346 496,159.5C496,190.654 470.654,216 439.5,216C408.346,216 383,190.654 383,159.5C383,128.346 408.346,103 439.5,103Z" style="fill-rule:nonzero;"/>
                            <path d="M442.833,200C450.482,200 457.925,197.84 464.354,193.753C467.849,191.531 468.882,186.897 466.66,183.4C464.439,179.905 459.804,178.873 456.307,181.094C452.287,183.649 447.628,184.999 442.833,184.999C428.956,184.999 417.667,173.709 417.667,159.832C417.667,145.955 428.956,134.666 442.833,134.666C447.754,134.666 452.517,136.083 456.606,138.765C460.071,141.036 464.72,140.07 466.991,136.605C469.262,133.14 468.295,128.492 464.831,126.22C458.291,121.933 450.684,119.666 442.833,119.666C420.686,119.666 402.667,137.685 402.667,159.832C402.667,181.981 420.686,200 442.833,200Z" style="fill-rule:nonzero;"/>
                        </g>
                    </g>
                </g>
            </g>
            <g transform="matrix(0.21284,0,0,0.21284,137.897,283.347)">
                <g id="_08-strategy.svg" serif:id="08-strategy.svg">
                    <g>
                        <path d="M503.5,56L353.528,56L259.279,1.022C256.943,-0.34 254.056,-0.34 251.721,1.022L157.472,56L7.5,56C3.358,56 0,59.358 0,63.5L0,95.5C0,99.642 3.358,103 7.5,103L24,103L24,415.5C24,419.642 27.358,423 31.5,423L248,423L248,496L223.5,496C219.358,496 216,499.358 216,503.5C216,507.642 219.358,511 223.5,511L287.5,511C291.643,511 295,507.642 295,503.5C295,499.358 291.643,496 287.5,496L263,496L263,423L479.5,423C483.643,423 487,419.642 487,415.5L487,103L503.5,103C507.643,103 511,99.642 511,95.5L511,63.5C511,59.358 507.643,56 503.5,56ZM255.5,16.183L323.758,56L187.242,56L255.5,16.183ZM496,88L419.5,88C415.357,88 412,91.358 412,95.5C412,99.642 415.357,103 419.5,103L472,103L472,408L39,408L39,103L384.833,103C388.976,103 392.333,99.642 392.333,95.5C392.333,91.358 388.976,88 384.833,88L15,88L15,71L496,71L496,88Z" style="fill-rule:nonzero;"/>
                        <path d="M159.5,263C198.925,263 231,230.925 231,191.5C231,152.075 198.925,120 159.5,120C120.075,120 88,152.075 88,191.5C88,230.925 120.075,263 159.5,263ZM159.5,135C190.654,135 216,160.346 216,191.5C216,222.654 190.654,248 159.5,248C128.346,248 103,222.655 103,191.5C103,160.345 128.346,135 159.5,135Z" style="fill-rule:nonzero;"/>
                        <path d="M421.289,277.712C413.773,270.194 401.227,270.194 393.711,277.712L367.5,303.923L341.289,277.712C333.773,270.194 321.227,270.194 313.711,277.712C306.108,285.315 306.108,297.686 313.711,305.289L339.923,331.5L313.711,357.711C306.108,365.314 306.108,377.685 313.71,385.287C321.225,392.804 333.774,392.805 341.289,385.288L367.5,359.077L393.71,385.287C401.225,392.804 413.774,392.805 421.289,385.288C428.892,377.685 428.892,365.314 421.289,357.711L395.077,331.5L421.289,305.289C428.892,297.686 428.892,285.315 421.289,277.712ZM410.682,294.682L379.167,326.197C376.238,329.126 376.238,333.875 379.167,336.803L410.682,368.318C412.338,369.974 412.424,372.72 410.876,374.476C409.183,376.396 406.129,376.494 404.319,374.682L372.804,343.167C369.914,340.278 365.087,340.278 362.197,343.167L330.681,374.683C328.871,376.494 325.816,376.395 324.124,374.475C322.576,372.719 322.663,369.973 324.319,368.318L355.834,336.803C358.763,333.874 358.763,329.125 355.834,326.197L324.319,294.682C322.664,293.027 322.576,290.281 324.124,288.525C325.817,286.604 328.871,286.506 330.682,288.318L362.197,319.833C365.127,322.762 369.875,322.762 372.804,319.833L404.319,288.318C406.13,286.507 409.184,286.605 410.877,288.526C412.424,290.282 412.337,293.027 410.682,294.682Z" style="fill-rule:nonzero;"/>
                        <path d="M377.644,154.815C375.056,158.049 375.581,162.769 378.815,165.357L402.119,184L303.5,184C281.72,184 264,201.72 264,223.5L264,303.5C264,317.009 253.009,328 239.5,328L95.5,328C91.358,328 88,331.358 88,335.5C88,339.642 91.358,343 95.5,343L239.5,343C261.28,343 279,325.28 279,303.5L279,223.5C279,209.991 289.99,199 303.5,199L402.119,199L378.814,217.644C375.878,219.993 375.142,224.303 377.147,227.488C379.499,231.224 384.732,232.12 388.185,229.357L428.185,197.357C431.879,194.401 431.879,188.601 428.185,185.644L388.185,153.644C384.951,151.056 380.232,151.581 377.644,154.815Z" style="fill-rule:nonzero;"/>
                    </g>
                </g>
            </g>
            <g id="_14-time-and-money.svg" serif:id="14-time and money.svg">
            </g>
            <g transform="matrix(5.55112e-17,0.853109,-0.853109,5.55112e-17,428.87,0.667871)">
                <g id="rdd_arrow_grey.svg">
                    <g id="Layer14" serif:id="Layer1">
                        <g transform="matrix(1.20986,0,0,1.03946,-66.2708,-11.579)">
                            <path d="M301.174,284.276L301.505,284.264L310.839,284.264L321.837,293.403L310.839,302.542L301.505,302.542L301.174,302.53L312.157,293.403L301.174,284.276Z" style="fill:rgb(182,196,196);"/>
                        </g>
                        <g transform="matrix(1.20986,0,0,1.03946,-81.2708,-11.579)">
                            <path d="M301.174,284.276L301.505,284.264L310.839,284.264L321.837,293.403L310.839,302.542L301.505,302.542L301.174,302.53L312.157,293.403L301.174,284.276Z" style="fill:rgb(182,196,196);"/>
                        </g>
                    </g>
                </g>
            </g>
        </g>
        <g id="Layer2">
        </g>
        <g transform="matrix(1,0,0,1,31.6575,-257.367)">
            <g transform="matrix(17,0,0,17,111.276,469.888)">
                <path d="M0.054,0L0.054,-0.711L0.283,-0.711C0.346,-0.711 0.402,-0.697 0.452,-0.668C0.502,-0.64 0.541,-0.6 0.57,-0.548C0.598,-0.496 0.612,-0.438 0.612,-0.373L0.612,-0.34C0.612,-0.275 0.599,-0.217 0.571,-0.165C0.544,-0.114 0.505,-0.073 0.455,-0.044C0.405,-0.015 0.349,0 0.288,0L0.054,0ZM0.225,-0.579L0.225,-0.132L0.285,-0.132C0.334,-0.132 0.372,-0.149 0.398,-0.184C0.424,-0.219 0.438,-0.271 0.438,-0.34L0.438,-0.371C0.438,-0.44 0.424,-0.492 0.398,-0.526C0.372,-0.561 0.333,-0.579 0.283,-0.579L0.225,-0.579Z" style="fill-rule:nonzero;"/>
            </g>
            <g transform="matrix(17,0,0,17,122.266,469.888)">
                <path d="M0.344,0C0.338,-0.011 0.333,-0.027 0.328,-0.047C0.298,-0.009 0.256,0.01 0.201,0.01C0.151,0.01 0.109,-0.005 0.074,-0.035C0.039,-0.066 0.022,-0.103 0.022,-0.149C0.022,-0.206 0.043,-0.25 0.085,-0.279C0.128,-0.308 0.189,-0.323 0.27,-0.323L0.321,-0.323L0.321,-0.351C0.321,-0.399 0.3,-0.423 0.258,-0.423C0.219,-0.423 0.199,-0.404 0.199,-0.366L0.035,-0.366C0.035,-0.417 0.056,-0.458 0.1,-0.49C0.143,-0.522 0.199,-0.538 0.266,-0.538C0.333,-0.538 0.387,-0.522 0.426,-0.489C0.465,-0.456 0.485,-0.411 0.486,-0.354L0.486,-0.12C0.486,-0.071 0.494,-0.034 0.508,-0.008L0.508,0L0.344,0ZM0.241,-0.107C0.261,-0.107 0.278,-0.112 0.292,-0.121C0.305,-0.129 0.315,-0.139 0.321,-0.15L0.321,-0.235L0.273,-0.235C0.216,-0.235 0.187,-0.209 0.187,-0.158C0.187,-0.143 0.192,-0.131 0.202,-0.121C0.212,-0.112 0.225,-0.107 0.241,-0.107Z" style="fill-rule:nonzero;"/>
            </g>
            <g transform="matrix(17,0,0,17,131.289,469.888)">
                <path d="M0.238,-0.66L0.238,-0.528L0.325,-0.528L0.325,-0.414L0.238,-0.414L0.238,-0.172C0.238,-0.153 0.241,-0.139 0.249,-0.131C0.256,-0.123 0.27,-0.119 0.291,-0.119C0.307,-0.119 0.321,-0.12 0.332,-0.122L0.332,-0.004C0.302,0.005 0.271,0.01 0.239,0.01C0.183,0.01 0.141,-0.004 0.114,-0.03C0.087,-0.057 0.073,-0.097 0.073,-0.152L0.073,-0.414L0.006,-0.414L0.006,-0.528L0.073,-0.528L0.073,-0.66L0.238,-0.66Z" style="fill-rule:nonzero;"/>
            </g>
            <g transform="matrix(17,0,0,17,137.124,469.888)">
                <path d="M0.344,0C0.338,-0.011 0.333,-0.027 0.328,-0.047C0.298,-0.009 0.256,0.01 0.201,0.01C0.151,0.01 0.109,-0.005 0.074,-0.035C0.039,-0.066 0.022,-0.103 0.022,-0.149C0.022,-0.206 0.043,-0.25 0.085,-0.279C0.128,-0.308 0.189,-0.323 0.27,-0.323L0.321,-0.323L0.321,-0.351C0.321,-0.399 0.3,-0.423 0.258,-0.423C0.219,-0.423 0.199,-0.404 0.199,-0.366L0.035,-0.366C0.035,-0.417 0.056,-0.458 0.1,-0.49C0.143,-0.522 0.199,-0.538 0.266,-0.538C0.333,-0.538 0.387,-0.522 0.426,-0.489C0.465,-0.456 0.485,-0.411 0.486,-0.354L0.486,-0.12C0.486,-0.071 0.494,-0.034 0.508,-0.008L0.508,0L0.344,0ZM0.241,-0.107C0.261,-0.107 0.278,-0.112 0.292,-0.121C0.305,-0.129 0.315,-0.139 0.321,-0.15L0.321,-0.235L0.273,-0.235C0.216,-0.235 0.187,-0.209 0.187,-0.158C0.187,-0.143 0.192,-0.131 0.202,-0.121C0.212,-0.112 0.225,-0.107 0.241,-0.107Z" style="fill-rule:nonzero;"/>
            </g>
            <g transform="matrix(17,0,0,17,146.147,469.888)">
                <path d="M0.202,-0.528L0.207,-0.466C0.244,-0.514 0.295,-0.538 0.358,-0.538C0.425,-0.538 0.47,-0.512 0.493,-0.458C0.529,-0.512 0.581,-0.538 0.648,-0.538C0.756,-0.538 0.811,-0.473 0.813,-0.344L0.813,0L0.648,0L0.648,-0.333C0.648,-0.361 0.644,-0.38 0.635,-0.393C0.626,-0.405 0.609,-0.411 0.585,-0.411C0.552,-0.411 0.528,-0.397 0.512,-0.368L0.513,-0.361L0.513,0L0.348,0L0.348,-0.333C0.348,-0.36 0.343,-0.38 0.334,-0.393C0.326,-0.405 0.309,-0.411 0.284,-0.411C0.253,-0.411 0.229,-0.397 0.212,-0.368L0.212,0L0.047,0L0.047,-0.528L0.202,-0.528Z" style="fill-rule:nonzero;"/>
            </g>
            <g transform="matrix(17,0,0,17,160.79,469.888)">
                <path d="M0.025,-0.269C0.025,-0.322 0.036,-0.369 0.056,-0.41C0.077,-0.451 0.106,-0.483 0.145,-0.505C0.183,-0.527 0.228,-0.538 0.28,-0.538C0.359,-0.538 0.421,-0.514 0.467,-0.465C0.512,-0.416 0.535,-0.349 0.535,-0.265L0.535,-0.259C0.535,-0.176 0.512,-0.111 0.467,-0.063C0.421,-0.014 0.359,0.01 0.281,0.01C0.206,0.01 0.145,-0.013 0.1,-0.058C0.054,-0.103 0.029,-0.164 0.026,-0.241L0.025,-0.269ZM0.19,-0.259C0.19,-0.21 0.198,-0.174 0.213,-0.151C0.228,-0.129 0.251,-0.117 0.281,-0.117C0.339,-0.117 0.369,-0.162 0.371,-0.252L0.371,-0.269C0.371,-0.364 0.34,-0.411 0.28,-0.411C0.225,-0.411 0.195,-0.37 0.19,-0.289L0.19,-0.259Z" style="fill-rule:nonzero;"/>
            </g>
            <g transform="matrix(17,0,0,17,170.336,469.888)">
                <path d="M0.025,-0.268C0.025,-0.352 0.043,-0.418 0.08,-0.466C0.116,-0.514 0.166,-0.538 0.231,-0.538C0.278,-0.538 0.318,-0.52 0.35,-0.482L0.35,-0.75L0.515,-0.75L0.515,0L0.367,0L0.359,-0.057C0.325,-0.012 0.282,0.01 0.23,0.01C0.167,0.01 0.117,-0.014 0.081,-0.063C0.044,-0.111 0.025,-0.179 0.025,-0.268ZM0.19,-0.258C0.19,-0.164 0.217,-0.117 0.272,-0.117C0.308,-0.117 0.334,-0.132 0.35,-0.163L0.35,-0.364C0.335,-0.396 0.309,-0.411 0.273,-0.411C0.222,-0.411 0.195,-0.37 0.19,-0.288L0.19,-0.258Z" style="fill-rule:nonzero;"/>
            </g>
            <g transform="matrix(17,0,0,17,179.898,469.888)">
                <path d="M0.302,0.01C0.221,0.01 0.155,-0.014 0.105,-0.063C0.055,-0.111 0.03,-0.174 0.03,-0.251L0.03,-0.265C0.03,-0.319 0.04,-0.367 0.06,-0.408C0.08,-0.45 0.109,-0.482 0.147,-0.504C0.186,-0.527 0.231,-0.538 0.284,-0.538C0.358,-0.538 0.417,-0.515 0.46,-0.469C0.503,-0.423 0.524,-0.359 0.524,-0.276L0.524,-0.212L0.197,-0.212C0.203,-0.183 0.216,-0.16 0.236,-0.143C0.256,-0.126 0.281,-0.117 0.313,-0.117C0.365,-0.117 0.406,-0.135 0.435,-0.172L0.51,-0.083C0.49,-0.055 0.461,-0.032 0.423,-0.015C0.385,0.001 0.345,0.01 0.302,0.01ZM0.283,-0.411C0.235,-0.411 0.206,-0.379 0.197,-0.315L0.363,-0.315L0.363,-0.328C0.364,-0.354 0.357,-0.375 0.343,-0.389C0.329,-0.404 0.309,-0.411 0.283,-0.411Z" style="fill-rule:nonzero;"/>
            </g>
            <g transform="matrix(17,0,0,17,189.154,469.888)">
                <rect x="0.055" y="-0.75" width="0.165" height="0.75" style="fill-rule:nonzero;"/>
            </g>
        </g>
        <g transform="matrix(1,0,0,1,213.402,-257.708)">
            <g transform="matrix(17,0,0,17,140.885,469.888)">
                <path d="M0.072,-0.72C0.093,-0.723 0.118,-0.726 0.146,-0.728C0.174,-0.73 0.209,-0.731 0.251,-0.731C0.288,-0.731 0.322,-0.728 0.355,-0.722C0.388,-0.716 0.416,-0.706 0.441,-0.692C0.465,-0.677 0.484,-0.658 0.498,-0.634C0.512,-0.61 0.519,-0.58 0.519,-0.544C0.519,-0.523 0.516,-0.503 0.51,-0.485C0.503,-0.466 0.495,-0.45 0.484,-0.437C0.473,-0.423 0.461,-0.412 0.448,-0.403C0.435,-0.394 0.421,-0.388 0.407,-0.386C0.422,-0.384 0.439,-0.379 0.458,-0.372C0.477,-0.365 0.494,-0.354 0.51,-0.34C0.526,-0.325 0.539,-0.307 0.55,-0.284C0.561,-0.261 0.566,-0.234 0.566,-0.202C0.566,-0.159 0.558,-0.123 0.542,-0.096C0.525,-0.068 0.503,-0.046 0.476,-0.03C0.448,-0.014 0.416,-0.003 0.38,0.003C0.343,0.009 0.305,0.012 0.265,0.012C0.234,0.012 0.204,0.011 0.174,0.01C0.144,0.008 0.11,0.005 0.072,0L0.072,-0.72ZM0.217,-0.11C0.226,-0.109 0.237,-0.108 0.25,-0.107C0.262,-0.106 0.273,-0.106 0.283,-0.106C0.297,-0.106 0.312,-0.107 0.327,-0.11C0.342,-0.113 0.357,-0.118 0.37,-0.126C0.383,-0.133 0.394,-0.144 0.403,-0.158C0.412,-0.171 0.416,-0.189 0.416,-0.211C0.416,-0.232 0.413,-0.249 0.406,-0.263C0.399,-0.276 0.39,-0.287 0.378,-0.296C0.365,-0.304 0.35,-0.31 0.334,-0.313C0.317,-0.316 0.298,-0.318 0.277,-0.318L0.217,-0.318L0.217,-0.11ZM0.261,-0.428C0.278,-0.428 0.293,-0.43 0.308,-0.433C0.322,-0.436 0.334,-0.441 0.345,-0.449C0.356,-0.456 0.364,-0.467 0.37,-0.48C0.376,-0.493 0.379,-0.509 0.379,-0.529C0.379,-0.548 0.376,-0.564 0.369,-0.577C0.362,-0.589 0.353,-0.599 0.342,-0.606C0.331,-0.612 0.318,-0.617 0.305,-0.62C0.291,-0.622 0.277,-0.623 0.264,-0.623C0.245,-0.623 0.23,-0.622 0.217,-0.62L0.217,-0.428L0.261,-0.428Z" style="fill-rule:nonzero;"/>
            </g>
            <g transform="matrix(17,0,0,17,151.17,469.888)">
                <path d="M0.07,-0.719L0.478,-0.719C0.482,-0.699 0.484,-0.679 0.484,-0.658C0.484,-0.636 0.482,-0.615 0.478,-0.595L0.216,-0.595L0.216,-0.439L0.424,-0.439C0.428,-0.418 0.43,-0.397 0.43,-0.377C0.43,-0.356 0.428,-0.335 0.424,-0.314L0.216,-0.314L0.216,-0.124L0.485,-0.124C0.489,-0.104 0.491,-0.084 0.491,-0.063C0.491,-0.041 0.489,-0.02 0.485,0L0.07,0L0.07,-0.719Z" style="fill-rule:nonzero;"/>
            </g>
            <g transform="matrix(17,0,0,17,160.197,469.888)">
                <path d="M0.07,-0.719C0.091,-0.723 0.11,-0.725 0.129,-0.725C0.149,-0.725 0.17,-0.723 0.191,-0.719L0.469,-0.261L0.469,-0.719C0.493,-0.723 0.516,-0.725 0.538,-0.725C0.559,-0.725 0.579,-0.723 0.598,-0.719L0.598,0C0.577,0.004 0.557,0.006 0.54,0.006C0.521,0.006 0.501,0.004 0.479,0L0.199,-0.457L0.199,0C0.178,0.004 0.156,0.006 0.134,0.006C0.112,0.006 0.091,0.004 0.07,0L0.07,-0.719Z" style="fill-rule:nonzero;"/>
            </g>
            <g transform="matrix(17,0,0,17,171.553,469.888)">
                <path d="M0.07,-0.719L0.478,-0.719C0.482,-0.699 0.484,-0.679 0.484,-0.658C0.484,-0.636 0.482,-0.615 0.478,-0.595L0.216,-0.595L0.216,-0.439L0.424,-0.439C0.428,-0.418 0.43,-0.397 0.43,-0.377C0.43,-0.356 0.428,-0.335 0.424,-0.314L0.216,-0.314L0.216,-0.124L0.485,-0.124C0.489,-0.104 0.491,-0.084 0.491,-0.063C0.491,-0.041 0.489,-0.02 0.485,0L0.07,0L0.07,-0.719Z" style="fill-rule:nonzero;"/>
            </g>
            <g transform="matrix(17,0,0,17,180.58,469.888)">
                <path d="M0.077,-0.719C0.106,-0.722 0.134,-0.725 0.16,-0.728C0.185,-0.73 0.214,-0.731 0.245,-0.731C0.282,-0.731 0.318,-0.728 0.354,-0.721C0.389,-0.714 0.421,-0.703 0.45,-0.686C0.479,-0.669 0.502,-0.646 0.52,-0.617C0.537,-0.588 0.546,-0.551 0.546,-0.506C0.546,-0.479 0.543,-0.456 0.536,-0.436C0.529,-0.415 0.521,-0.397 0.511,-0.382C0.5,-0.367 0.489,-0.354 0.477,-0.343C0.465,-0.332 0.454,-0.323 0.443,-0.316L0.426,-0.305L0.601,-0.001C0.588,0 0.574,0.002 0.559,0.003C0.544,0.004 0.529,0.005 0.514,0.005C0.489,0.005 0.464,0.003 0.439,-0.001L0.251,-0.335L0.275,-0.347C0.284,-0.352 0.296,-0.358 0.309,-0.365C0.322,-0.372 0.335,-0.382 0.348,-0.393C0.36,-0.404 0.37,-0.417 0.379,-0.433C0.388,-0.448 0.392,-0.467 0.392,-0.488C0.392,-0.53 0.38,-0.561 0.356,-0.581C0.332,-0.6 0.301,-0.61 0.263,-0.61C0.248,-0.61 0.235,-0.609 0.223,-0.607L0.223,0C0.211,0.001 0.199,0.003 0.187,0.004C0.175,0.005 0.163,0.005 0.152,0.005C0.141,0.005 0.129,0.005 0.116,0.004C0.103,0.003 0.09,0.002 0.077,0L0.077,-0.719Z" style="fill-rule:nonzero;"/>
            </g>
            <g transform="matrix(17,0,0,17,190.967,469.888)">
                <path d="M0.237,-0.719C0.251,-0.721 0.264,-0.723 0.277,-0.724C0.29,-0.724 0.304,-0.725 0.319,-0.725C0.332,-0.725 0.345,-0.724 0.358,-0.724C0.371,-0.723 0.385,-0.721 0.4,-0.719L0.625,0C0.598,0.004 0.571,0.006 0.545,0.006C0.52,0.006 0.495,0.004 0.471,0L0.431,-0.144L0.193,-0.144L0.152,0C0.128,0.004 0.105,0.006 0.083,0.006C0.058,0.006 0.034,0.004 0.01,0L0.237,-0.719ZM0.397,-0.265L0.314,-0.567L0.227,-0.265L0.397,-0.265Z" style="fill-rule:nonzero;"/>
            </g>
            <g transform="matrix(17,0,0,17,200.589,469.888)">
                <path d="M0.21,-0.595L0.031,-0.595C0.027,-0.615 0.025,-0.636 0.025,-0.658C0.025,-0.679 0.027,-0.699 0.031,-0.719L0.536,-0.719C0.54,-0.699 0.542,-0.679 0.542,-0.658C0.542,-0.636 0.54,-0.615 0.536,-0.595L0.357,-0.595L0.357,0C0.345,0.001 0.333,0.003 0.321,0.004C0.309,0.005 0.297,0.005 0.286,0.005C0.275,0.005 0.263,0.005 0.25,0.004C0.237,0.003 0.223,0.002 0.21,0L0.21,-0.595Z" style="fill-rule:nonzero;"/>
            </g>
            <g transform="matrix(17,0,0,17,209.582,469.888)">
                <path d="M0.363,0.012C0.309,0.012 0.262,0.003 0.223,-0.016C0.184,-0.035 0.151,-0.061 0.126,-0.094C0.101,-0.127 0.082,-0.166 0.07,-0.211C0.057,-0.256 0.051,-0.305 0.051,-0.358C0.051,-0.411 0.057,-0.461 0.07,-0.507C0.082,-0.552 0.101,-0.592 0.126,-0.625C0.151,-0.658 0.184,-0.684 0.223,-0.703C0.262,-0.722 0.309,-0.731 0.363,-0.731C0.417,-0.731 0.464,-0.722 0.503,-0.703C0.542,-0.684 0.575,-0.658 0.6,-0.625C0.625,-0.592 0.644,-0.552 0.657,-0.507C0.669,-0.461 0.675,-0.411 0.675,-0.358C0.675,-0.305 0.669,-0.256 0.657,-0.211C0.644,-0.166 0.625,-0.127 0.6,-0.094C0.575,-0.061 0.542,-0.035 0.503,-0.016C0.464,0.003 0.417,0.012 0.363,0.012ZM0.363,-0.11C0.466,-0.11 0.518,-0.193 0.518,-0.358C0.518,-0.441 0.505,-0.503 0.481,-0.544C0.456,-0.585 0.417,-0.606 0.364,-0.606C0.259,-0.606 0.207,-0.523 0.207,-0.358C0.207,-0.193 0.259,-0.11 0.363,-0.11Z" style="fill-rule:nonzero;"/>
            </g>
            <g transform="matrix(17,0,0,17,221.924,469.888)">
                <path d="M0.077,-0.719C0.106,-0.722 0.134,-0.725 0.16,-0.728C0.185,-0.73 0.214,-0.731 0.245,-0.731C0.282,-0.731 0.318,-0.728 0.354,-0.721C0.389,-0.714 0.421,-0.703 0.45,-0.686C0.479,-0.669 0.502,-0.646 0.52,-0.617C0.537,-0.588 0.546,-0.551 0.546,-0.506C0.546,-0.479 0.543,-0.456 0.536,-0.436C0.529,-0.415 0.521,-0.397 0.511,-0.382C0.5,-0.367 0.489,-0.354 0.477,-0.343C0.465,-0.332 0.454,-0.323 0.443,-0.316L0.426,-0.305L0.601,-0.001C0.588,0 0.574,0.002 0.559,0.003C0.544,0.004 0.529,0.005 0.514,0.005C0.489,0.005 0.464,0.003 0.439,-0.001L0.251,-0.335L0.275,-0.347C0.284,-0.352 0.296,-0.358 0.309,-0.365C0.322,-0.372 0.335,-0.382 0.348,-0.393C0.36,-0.404 0.37,-0.417 0.379,-0.433C0.388,-0.448 0.392,-0.467 0.392,-0.488C0.392,-0.53 0.38,-0.561 0.356,-0.581C0.332,-0.6 0.301,-0.61 0.263,-0.61C0.248,-0.61 0.235,-0.609 0.223,-0.607L0.223,0C0.211,0.001 0.199,0.003 0.187,0.004C0.175,0.005 0.163,0.005 0.152,0.005C0.141,0.005 0.129,0.005 0.116,0.004C0.103,0.003 0.09,0.002 0.077,0L0.077,-0.719Z" style="fill-rule:nonzero;"/>
            </g>
        </g>
        <g transform="matrix(1,0,0,1,411.625,-25.6273)">
            <g transform="matrix(13,0,0,13,162.245,448.422)">
                <path d="M0.612,-0.579L0.398,-0.579L0.398,0L0.227,0L0.227,-0.579L0.018,-0.579L0.018,-0.711L0.612,-0.711L0.612,-0.579Z" style="fill-rule:nonzero;"/>
            </g>
            <g transform="matrix(13,0,0,13,170.027,448.422)">
                <path d="M0.366,-0.379L0.312,-0.383C0.26,-0.383 0.227,-0.367 0.212,-0.334L0.212,0L0.047,0L0.047,-0.528L0.202,-0.528L0.207,-0.46C0.235,-0.512 0.273,-0.538 0.323,-0.538C0.34,-0.538 0.356,-0.536 0.369,-0.532L0.366,-0.379Z" style="fill-rule:nonzero;"/>
            </g>
            <g transform="matrix(13,0,0,13,174.763,448.422)">
                <path d="M0.344,0C0.338,-0.011 0.333,-0.027 0.328,-0.047C0.298,-0.009 0.256,0.01 0.201,0.01C0.151,0.01 0.109,-0.005 0.074,-0.035C0.039,-0.066 0.022,-0.103 0.022,-0.149C0.022,-0.206 0.043,-0.25 0.085,-0.279C0.128,-0.308 0.189,-0.323 0.27,-0.323L0.321,-0.323L0.321,-0.351C0.321,-0.399 0.3,-0.423 0.258,-0.423C0.219,-0.423 0.199,-0.404 0.199,-0.366L0.035,-0.366C0.035,-0.417 0.056,-0.458 0.1,-0.49C0.143,-0.522 0.199,-0.538 0.266,-0.538C0.333,-0.538 0.387,-0.522 0.426,-0.489C0.465,-0.456 0.485,-0.411 0.486,-0.354L0.486,-0.12C0.486,-0.071 0.494,-0.034 0.508,-0.008L0.508,0L0.344,0ZM0.241,-0.107C0.261,-0.107 0.278,-0.112 0.292,-0.121C0.305,-0.129 0.315,-0.139 0.321,-0.15L0.321,-0.235L0.273,-0.235C0.216,-0.235 0.187,-0.209 0.187,-0.158C0.187,-0.143 0.192,-0.131 0.202,-0.121C0.212,-0.112 0.225,-0.107 0.241,-0.107Z" style="fill-rule:nonzero;"/>
            </g>
            <g transform="matrix(13,0,0,13,181.662,448.422)">
                <path d="M0.22,0L0.055,0L0.055,-0.528L0.22,-0.528L0.22,0ZM0.045,-0.665C0.045,-0.688 0.053,-0.707 0.07,-0.722C0.087,-0.737 0.109,-0.745 0.136,-0.745C0.163,-0.745 0.185,-0.737 0.202,-0.722C0.219,-0.707 0.228,-0.688 0.228,-0.665C0.228,-0.641 0.219,-0.622 0.202,-0.607C0.185,-0.592 0.163,-0.584 0.136,-0.584C0.109,-0.584 0.087,-0.592 0.07,-0.607C0.053,-0.622 0.045,-0.641 0.045,-0.665Z" style="fill-rule:nonzero;"/>
            </g>
            <g transform="matrix(13,0,0,13,185.236,448.422)">
                <path d="M0.197,-0.528L0.203,-0.466C0.239,-0.514 0.289,-0.538 0.354,-0.538C0.409,-0.538 0.45,-0.522 0.477,-0.489C0.504,-0.456 0.518,-0.406 0.519,-0.34L0.519,0L0.354,0L0.354,-0.333C0.354,-0.36 0.349,-0.38 0.338,-0.392C0.327,-0.405 0.308,-0.411 0.279,-0.411C0.247,-0.411 0.223,-0.398 0.208,-0.373L0.208,0L0.043,0L0.043,-0.528L0.197,-0.528Z" style="fill-rule:nonzero;"/>
            </g>
            <g transform="matrix(13,0,0,13,192.568,448.422)">
                <path d="M0.22,0L0.055,0L0.055,-0.528L0.22,-0.528L0.22,0ZM0.045,-0.665C0.045,-0.688 0.053,-0.707 0.07,-0.722C0.087,-0.737 0.109,-0.745 0.136,-0.745C0.163,-0.745 0.185,-0.737 0.202,-0.722C0.219,-0.707 0.228,-0.688 0.228,-0.665C0.228,-0.641 0.219,-0.622 0.202,-0.607C0.185,-0.592 0.163,-0.584 0.136,-0.584C0.109,-0.584 0.087,-0.592 0.07,-0.607C0.053,-0.622 0.045,-0.641 0.045,-0.665Z" style="fill-rule:nonzero;"/>
            </g>
            <g transform="matrix(13,0,0,13,196.141,448.422)">
                <path d="M0.197,-0.528L0.203,-0.466C0.239,-0.514 0.289,-0.538 0.354,-0.538C0.409,-0.538 0.45,-0.522 0.477,-0.489C0.504,-0.456 0.518,-0.406 0.519,-0.34L0.519,0L0.354,0L0.354,-0.333C0.354,-0.36 0.349,-0.38 0.338,-0.392C0.327,-0.405 0.308,-0.411 0.279,-0.411C0.247,-0.411 0.223,-0.398 0.208,-0.373L0.208,0L0.043,0L0.043,-0.528L0.197,-0.528Z" style="fill-rule:nonzero;"/>
            </g>
            <g transform="matrix(13,0,0,13,203.473,448.422)">
                <path d="M0.027,-0.268C0.027,-0.321 0.036,-0.369 0.053,-0.41C0.071,-0.451 0.096,-0.482 0.129,-0.505C0.162,-0.527 0.2,-0.538 0.244,-0.538C0.299,-0.538 0.342,-0.52 0.373,-0.482L0.378,-0.528L0.528,-0.528L0.528,-0.02C0.528,0.027 0.517,0.067 0.495,0.101C0.474,0.136 0.442,0.162 0.401,0.18C0.36,0.199 0.313,0.208 0.259,0.208C0.22,0.208 0.183,0.201 0.146,0.186C0.11,0.171 0.082,0.152 0.063,0.129L0.132,0.032C0.162,0.068 0.203,0.086 0.253,0.086C0.326,0.086 0.362,0.049 0.362,-0.026L0.362,-0.042C0.331,-0.008 0.291,0.01 0.243,0.01C0.178,0.01 0.126,-0.015 0.086,-0.064C0.047,-0.114 0.027,-0.18 0.027,-0.262L0.027,-0.268ZM0.192,-0.258C0.192,-0.215 0.2,-0.18 0.216,-0.155C0.233,-0.13 0.255,-0.117 0.285,-0.117C0.32,-0.117 0.346,-0.129 0.362,-0.153L0.362,-0.375C0.346,-0.399 0.321,-0.411 0.286,-0.411C0.256,-0.411 0.233,-0.398 0.217,-0.372C0.2,-0.346 0.192,-0.308 0.192,-0.258Z" style="fill-rule:nonzero;"/>
            </g>
        </g>
        <g transform="matrix(1,0,0,1,411.625,-182.731)">
            <g transform="matrix(13,0,0,13,173.683,448.422)">
                <path d="M0.612,-0.579L0.398,-0.579L0.398,0L0.227,0L0.227,-0.579L0.018,-0.579L0.018,-0.711L0.612,-0.711L0.612,-0.579Z" style="fill-rule:nonzero;"/>
            </g>
            <g transform="matrix(13,0,0,13,181.313,448.422)">
                <path d="M0.302,0.01C0.221,0.01 0.155,-0.014 0.105,-0.063C0.055,-0.111 0.03,-0.174 0.03,-0.251L0.03,-0.265C0.03,-0.319 0.04,-0.367 0.06,-0.408C0.08,-0.45 0.109,-0.482 0.147,-0.504C0.186,-0.527 0.231,-0.538 0.284,-0.538C0.358,-0.538 0.417,-0.515 0.46,-0.469C0.503,-0.423 0.524,-0.359 0.524,-0.276L0.524,-0.212L0.197,-0.212C0.203,-0.183 0.216,-0.16 0.236,-0.143C0.256,-0.126 0.281,-0.117 0.313,-0.117C0.365,-0.117 0.406,-0.135 0.435,-0.172L0.51,-0.083C0.49,-0.055 0.461,-0.032 0.423,-0.015C0.385,0.001 0.345,0.01 0.302,0.01ZM0.283,-0.411C0.235,-0.411 0.206,-0.379 0.197,-0.315L0.363,-0.315L0.363,-0.328C0.364,-0.354 0.357,-0.375 0.343,-0.389C0.329,-0.404 0.309,-0.411 0.283,-0.411Z" style="fill-rule:nonzero;"/>
            </g>
            <g transform="matrix(13,0,0,13,188.391,448.422)">
                <path d="M0.323,-0.148C0.323,-0.162 0.315,-0.174 0.301,-0.182C0.286,-0.191 0.258,-0.199 0.217,-0.208C0.176,-0.218 0.142,-0.23 0.116,-0.244C0.089,-0.259 0.069,-0.277 0.055,-0.298C0.041,-0.319 0.034,-0.344 0.034,-0.371C0.034,-0.42 0.054,-0.46 0.094,-0.491C0.134,-0.522 0.186,-0.538 0.251,-0.538C0.321,-0.538 0.377,-0.522 0.419,-0.491C0.461,-0.459 0.482,-0.418 0.482,-0.366L0.317,-0.366C0.317,-0.409 0.295,-0.43 0.25,-0.43C0.233,-0.43 0.219,-0.425 0.207,-0.415C0.195,-0.406 0.189,-0.394 0.189,-0.379C0.189,-0.365 0.197,-0.353 0.211,-0.344C0.225,-0.335 0.248,-0.327 0.28,-0.321C0.311,-0.315 0.339,-0.308 0.362,-0.3C0.442,-0.273 0.481,-0.224 0.481,-0.153C0.481,-0.105 0.46,-0.066 0.417,-0.036C0.374,-0.005 0.319,0.01 0.251,0.01C0.206,0.01 0.165,0.002 0.13,-0.015C0.094,-0.031 0.067,-0.053 0.047,-0.081C0.027,-0.109 0.017,-0.139 0.017,-0.169L0.171,-0.169C0.172,-0.145 0.18,-0.127 0.195,-0.116C0.211,-0.105 0.231,-0.099 0.255,-0.099C0.278,-0.099 0.295,-0.104 0.306,-0.113C0.317,-0.122 0.323,-0.134 0.323,-0.148Z" style="fill-rule:nonzero;"/>
            </g>
            <g transform="matrix(13,0,0,13,195.05,448.422)">
                <path d="M0.238,-0.66L0.238,-0.528L0.325,-0.528L0.325,-0.414L0.238,-0.414L0.238,-0.172C0.238,-0.153 0.241,-0.139 0.249,-0.131C0.256,-0.123 0.27,-0.119 0.291,-0.119C0.307,-0.119 0.321,-0.12 0.332,-0.122L0.332,-0.004C0.302,0.005 0.271,0.01 0.239,0.01C0.183,0.01 0.141,-0.004 0.114,-0.03C0.087,-0.057 0.073,-0.097 0.073,-0.152L0.073,-0.414L0.006,-0.414L0.006,-0.528L0.073,-0.528L0.073,-0.66L0.238,-0.66Z" style="fill-rule:nonzero;"/>
            </g>
        </g>
        <g transform="matrix(1,0,0,1,411.624,-334.557)">
            <g transform="matrix(13,0,0,13,147.912,448.422)">
                <path d="M0.054,0L0.054,-0.711L0.283,-0.711C0.346,-0.711 0.402,-0.697 0.452,-0.668C0.502,-0.64 0.541,-0.6 0.57,-0.548C0.598,-0.496 0.612,-0.438 0.612,-0.373L0.612,-0.34C0.612,-0.275 0.599,-0.217 0.571,-0.165C0.544,-0.114 0.505,-0.073 0.455,-0.044C0.405,-0.015 0.349,0 0.288,0L0.054,0ZM0.225,-0.579L0.225,-0.132L0.285,-0.132C0.334,-0.132 0.372,-0.149 0.398,-0.184C0.424,-0.219 0.438,-0.271 0.438,-0.34L0.438,-0.371C0.438,-0.44 0.424,-0.492 0.398,-0.526C0.372,-0.561 0.333,-0.579 0.283,-0.579L0.225,-0.579Z" style="fill-rule:nonzero;"/>
            </g>
            <g transform="matrix(13,0,0,13,156.316,448.422)">
                <path d="M0.302,0.01C0.221,0.01 0.155,-0.014 0.105,-0.063C0.055,-0.111 0.03,-0.174 0.03,-0.251L0.03,-0.265C0.03,-0.319 0.04,-0.367 0.06,-0.408C0.08,-0.45 0.109,-0.482 0.147,-0.504C0.186,-0.527 0.231,-0.538 0.284,-0.538C0.358,-0.538 0.417,-0.515 0.46,-0.469C0.503,-0.423 0.524,-0.359 0.524,-0.276L0.524,-0.212L0.197,-0.212C0.203,-0.183 0.216,-0.16 0.236,-0.143C0.256,-0.126 0.281,-0.117 0.313,-0.117C0.365,-0.117 0.406,-0.135 0.435,-0.172L0.51,-0.083C0.49,-0.055 0.461,-0.032 0.423,-0.015C0.385,0.001 0.345,0.01 0.302,0.01ZM0.283,-0.411C0.235,-0.411 0.206,-0.379 0.197,-0.315L0.363,-0.315L0.363,-0.328C0.364,-0.354 0.357,-0.375 0.343,-0.389C0.329,-0.404 0.309,-0.411 0.283,-0.411Z" style="fill-rule:nonzero;"/>
            </g>
            <g transform="matrix(13,0,0,13,163.311,448.422)">
                <path d="M0.257,-0.196L0.34,-0.528L0.514,-0.528L0.341,0L0.173,0L0.001,-0.528L0.175,-0.528L0.257,-0.196Z" style="fill-rule:nonzero;"/>
            </g>
            <g transform="matrix(13,0,0,13,169.945,448.422)">
                <path d="M0.302,0.01C0.221,0.01 0.155,-0.014 0.105,-0.063C0.055,-0.111 0.03,-0.174 0.03,-0.251L0.03,-0.265C0.03,-0.319 0.04,-0.367 0.06,-0.408C0.08,-0.45 0.109,-0.482 0.147,-0.504C0.186,-0.527 0.231,-0.538 0.284,-0.538C0.358,-0.538 0.417,-0.515 0.46,-0.469C0.503,-0.423 0.524,-0.359 0.524,-0.276L0.524,-0.212L0.197,-0.212C0.203,-0.183 0.216,-0.16 0.236,-0.143C0.256,-0.126 0.281,-0.117 0.313,-0.117C0.365,-0.117 0.406,-0.135 0.435,-0.172L0.51,-0.083C0.49,-0.055 0.461,-0.032 0.423,-0.015C0.385,0.001 0.345,0.01 0.302,0.01ZM0.283,-0.411C0.235,-0.411 0.206,-0.379 0.197,-0.315L0.363,-0.315L0.363,-0.328C0.364,-0.354 0.357,-0.375 0.343,-0.389C0.329,-0.404 0.309,-0.411 0.283,-0.411Z" style="fill-rule:nonzero;"/>
            </g>
            <g transform="matrix(13,0,0,13,177.022,448.422)">
                <rect x="0.055" y="-0.75" width="0.165" height="0.75" style="fill-rule:nonzero;"/>
            </g>
            <g transform="matrix(13,0,0,13,180.596,448.422)">
                <path d="M0.025,-0.269C0.025,-0.322 0.036,-0.369 0.056,-0.41C0.077,-0.451 0.106,-0.483 0.145,-0.505C0.183,-0.527 0.228,-0.538 0.28,-0.538C0.359,-0.538 0.421,-0.514 0.467,-0.465C0.512,-0.416 0.535,-0.349 0.535,-0.265L0.535,-0.259C0.535,-0.176 0.512,-0.111 0.467,-0.063C0.421,-0.014 0.359,0.01 0.281,0.01C0.206,0.01 0.145,-0.013 0.1,-0.058C0.054,-0.103 0.029,-0.164 0.026,-0.241L0.025,-0.269ZM0.19,-0.259C0.19,-0.21 0.198,-0.174 0.213,-0.151C0.228,-0.129 0.251,-0.117 0.281,-0.117C0.339,-0.117 0.369,-0.162 0.371,-0.252L0.371,-0.269C0.371,-0.364 0.34,-0.411 0.28,-0.411C0.225,-0.411 0.195,-0.37 0.19,-0.289L0.19,-0.259Z" style="fill-rule:nonzero;"/>
            </g>
            <g transform="matrix(13,0,0,13,187.896,448.422)">
                <path d="M0.537,-0.26C0.537,-0.178 0.518,-0.113 0.481,-0.064C0.444,-0.015 0.394,0.01 0.332,0.01C0.283,0.01 0.243,-0.008 0.212,-0.043L0.212,0.203L0.047,0.203L0.047,-0.528L0.201,-0.528L0.206,-0.479C0.238,-0.519 0.279,-0.538 0.331,-0.538C0.396,-0.538 0.446,-0.514 0.482,-0.466C0.519,-0.418 0.537,-0.352 0.537,-0.268L0.537,-0.26ZM0.372,-0.271C0.372,-0.364 0.345,-0.411 0.29,-0.411C0.251,-0.411 0.225,-0.397 0.212,-0.369L0.212,-0.161C0.226,-0.132 0.253,-0.117 0.291,-0.117C0.343,-0.117 0.37,-0.162 0.372,-0.253L0.372,-0.271Z" style="fill-rule:nonzero;"/>
            </g>
            <g transform="matrix(13,0,0,13,195.215,448.422)">
                <path d="M0.202,-0.528L0.207,-0.466C0.244,-0.514 0.295,-0.538 0.358,-0.538C0.425,-0.538 0.47,-0.512 0.493,-0.458C0.529,-0.512 0.581,-0.538 0.648,-0.538C0.756,-0.538 0.811,-0.473 0.813,-0.344L0.813,0L0.648,0L0.648,-0.333C0.648,-0.361 0.644,-0.38 0.635,-0.393C0.626,-0.405 0.609,-0.411 0.585,-0.411C0.552,-0.411 0.528,-0.397 0.512,-0.368L0.513,-0.361L0.513,0L0.348,0L0.348,-0.333C0.348,-0.36 0.343,-0.38 0.334,-0.393C0.326,-0.405 0.309,-0.411 0.284,-0.411C0.253,-0.411 0.229,-0.397 0.212,-0.368L0.212,0L0.047,0L0.047,-0.528L0.202,-0.528Z" style="fill-rule:nonzero;"/>
            </g>
            <g transform="matrix(13,0,0,13,206.412,448.422)">
                <path d="M0.302,0.01C0.221,0.01 0.155,-0.014 0.105,-0.063C0.055,-0.111 0.03,-0.174 0.03,-0.251L0.03,-0.265C0.03,-0.319 0.04,-0.367 0.06,-0.408C0.08,-0.45 0.109,-0.482 0.147,-0.504C0.186,-0.527 0.231,-0.538 0.284,-0.538C0.358,-0.538 0.417,-0.515 0.46,-0.469C0.503,-0.423 0.524,-0.359 0.524,-0.276L0.524,-0.212L0.197,-0.212C0.203,-0.183 0.216,-0.16 0.236,-0.143C0.256,-0.126 0.281,-0.117 0.313,-0.117C0.365,-0.117 0.406,-0.135 0.435,-0.172L0.51,-0.083C0.49,-0.055 0.461,-0.032 0.423,-0.015C0.385,0.001 0.345,0.01 0.302,0.01ZM0.283,-0.411C0.235,-0.411 0.206,-0.379 0.197,-0.315L0.363,-0.315L0.363,-0.328C0.364,-0.354 0.357,-0.375 0.343,-0.389C0.329,-0.404 0.309,-0.411 0.283,-0.411Z" style="fill-rule:nonzero;"/>
            </g>
            <g transform="matrix(13,0,0,13,213.49,448.422)">
                <path d="M0.197,-0.528L0.203,-0.466C0.239,-0.514 0.289,-0.538 0.354,-0.538C0.409,-0.538 0.45,-0.522 0.477,-0.489C0.504,-0.456 0.518,-0.406 0.519,-0.34L0.519,0L0.354,0L0.354,-0.333C0.354,-0.36 0.349,-0.38 0.338,-0.392C0.327,-0.405 0.308,-0.411 0.279,-0.411C0.247,-0.411 0.223,-0.398 0.208,-0.373L0.208,0L0.043,0L0.043,-0.528L0.197,-0.528Z" style="fill-rule:nonzero;"/>
            </g>
            <g transform="matrix(13,0,0,13,220.821,448.422)">
                <path d="M0.238,-0.66L0.238,-0.528L0.325,-0.528L0.325,-0.414L0.238,-0.414L0.238,-0.172C0.238,-0.153 0.241,-0.139 0.249,-0.131C0.256,-0.123 0.27,-0.119 0.291,-0.119C0.307,-0.119 0.321,-0.12 0.332,-0.122L0.332,-0.004C0.302,0.005 0.271,0.01 0.239,0.01C0.183,0.01 0.141,-0.004 0.114,-0.03C0.087,-0.057 0.073,-0.097 0.073,-0.152L0.073,-0.414L0.006,-0.414L0.006,-0.528L0.073,-0.528L0.073,-0.66L0.238,-0.66Z" style="fill-rule:nonzero;"/>
            </g>
        </g>
    </g>
</svg>
