<?xml version="1.0" encoding="UTF-8" standalone="no"?>
<!DOCTYPE svg PUBLIC "-//W3C//DTD SVG 1.1//EN" "http://www.w3.org/Graphics/SVG/1.1/DTD/svg11.dtd">
<svg width="100%" height="100%" viewBox="0 0 1299 1299" version="1.1" xmlns="http://www.w3.org/2000/svg" xmlns:xlink="http://www.w3.org/1999/xlink" xml:space="preserve" xmlns:serif="http://www.serif.com/" style="fill-rule:evenodd;clip-rule:evenodd;stroke-linejoin:round;stroke-miterlimit:2;">
    <g transform="matrix(1.26817,0,0,1.42863,-84.7575,-277.989)">
        <path d="M1298.57,130.662C1298.57,58.547 1240.02,0 1167.91,0L130.662,0C58.547,0 0,58.547 0,130.662L0,1167.91C0,1240.02 58.547,1298.57 130.662,1298.57L1167.91,1298.57C1240.02,1298.57 1298.57,1240.02 1298.57,1167.91L1298.57,130.662Z" style="fill:rgb(50,62,79);fill-opacity:0;"/>
    </g>
    <g id="layer101" transform="matrix(6.45508,0,0,6.45508,183.147,191.365)">
        <g transform="matrix(0.219084,0,0,0.221319,-70.8791,-72.7108)">
            <path d="M718.919,1089.91C673.088,1074.42 657.596,1066.03 623.384,1038.92C580.78,1004.06 235.433,581.897 216.068,539.939C201.221,508.955 199.285,496.045 199.285,436.658C199.285,374.689 201.221,365.652 218.005,333.377C242.534,285.609 281.264,246.233 328.386,221.704C367.117,201.047 367.117,201.047 664.051,199.111C930.646,197.82 964.212,198.465 989.387,208.148C1028.76,222.995 1069.43,262.371 1086.21,301.747C1099.77,333.377 1100.41,339.186 1098.48,609.654C1096.54,885.286 1096.54,885.286 1073.3,934.345C1042.32,998.896 996.488,1044.08 932.582,1075.07C888.042,1095.72 877.714,1098.3 818.973,1099.6C769.914,1100.89 746.03,1098.95 718.919,1089.91ZM849.312,1046.02C851.248,1024.72 853.83,1022.13 891.915,1006.64C933.228,990.504 933.228,990.504 948.074,1004.71C963.567,1019.55 963.567,1019.55 990.678,992.441C1017.79,965.329 1017.79,965.329 1002.94,949.837C988.742,934.99 988.742,934.99 1004.88,893.678C1020.37,855.593 1022.95,853.011 1044.26,851.074C1067.49,849.138 1067.49,849.138 1067.49,807.18C1067.49,765.867 1067.49,765.867 1043.61,765.867C1019.73,765.867 1018.44,764.576 1004.23,726.491C988.742,687.115 988.742,687.115 1003.59,671.623C1018.44,656.131 1018.44,656.131 990.033,627.083C961.63,598.035 961.63,598.035 944.201,614.818C928.064,630.31 925.482,630.956 911.926,621.919C903.534,616.755 885.46,609.009 872.55,604.49C850.603,598.035 848.021,594.808 848.021,574.797C848.021,552.849 848.021,552.849 806.708,552.849C764.75,552.849 764.75,552.849 762.814,576.088C760.877,597.39 758.295,599.972 722.147,614.173C683.416,630.31 683.416,630.31 667.278,614.173C651.786,598.035 651.786,598.035 624.029,625.146C596.272,652.258 596.272,652.258 612.41,669.041C628.548,685.824 628.548,685.824 612.41,723.909C598.209,760.058 595.627,762.64 574.325,764.576C551.087,766.513 551.087,766.513 551.087,808.471C551.087,849.783 551.087,849.783 573.034,849.783C593.045,849.783 596.272,852.365 602.728,874.313C607.246,887.223 614.992,905.297 620.156,913.689C629.193,927.244 628.548,929.826 613.056,945.964C596.272,963.393 596.272,963.393 625.32,991.795C654.368,1020.2 654.368,1020.2 669.86,1005.35C685.353,990.504 685.353,990.504 724.729,1006C762.814,1020.2 764.105,1021.49 764.105,1045.37C764.105,1069.26 764.105,1069.26 805.417,1069.26C847.375,1069.26 847.375,1069.26 849.312,1046.02ZM728.602,1050.54C724.729,1047.31 715.046,1042.79 706.009,1040.85C689.871,1036.34 689.871,1036.34 706.009,1046.02C724.083,1056.99 738.284,1059.57 728.602,1050.54ZM925.482,1036.34C925.482,1033.11 917.09,1034.4 906.116,1040.21C895.788,1046.02 886.751,1051.18 886.751,1053.12C886.751,1054.41 895.788,1052.47 906.116,1049.25C917.09,1045.37 925.482,1039.56 925.482,1036.34ZM577.553,905.943C572.389,893.032 565.934,888.514 554.314,888.514C537.531,888.514 537.531,888.514 555.605,911.107C574.971,935.636 587.235,932.408 577.553,905.943ZM1047.48,907.879C1050.71,897.551 1052.65,888.514 1051.36,888.514C1049.42,888.514 1044.26,897.551 1038.45,907.879C1032.64,918.853 1031.35,927.244 1034.57,927.244C1037.8,927.244 1043.61,918.853 1047.48,907.879ZM540.759,733.592C565.934,733.592 569.807,731.655 576.907,714.227C584.653,695.507 584.008,692.925 566.579,674.851C548.505,655.485 548.505,655.485 601.437,603.199C653.723,550.267 653.723,550.267 673.088,568.342C691.162,585.77 693.744,586.416 712.464,578.67C729.893,571.569 731.829,567.696 731.829,542.521C731.829,514.119 731.829,514.119 809.29,514.119C886.751,514.119 886.751,514.119 886.751,543.167C886.751,568.987 888.688,573.506 904.18,579.315C918.381,584.479 923.545,583.188 938.392,568.987C947.429,559.95 957.757,552.849 960.985,552.849C964.212,552.849 990.033,575.442 1017.14,602.554L1067.49,652.903L1067.49,521.865C1067.49,401.801 1066.85,391.472 1056.52,391.472C1048.77,391.472 1041.03,401.801 1033.93,418.584C1023.6,442.468 1023.6,446.341 1031.99,456.023C1041.03,465.706 1040.38,468.288 1028.76,478.616C1016.5,489.59 1014.56,489.59 1005.52,480.553C995.842,471.515 992.615,471.515 970.022,481.198C951.302,488.944 944.847,495.399 944.847,506.373C944.847,517.992 940.974,520.574 925.482,520.574C909.344,520.574 906.116,517.992 906.116,504.436C906.116,495.399 902.243,488.299 898.37,488.299C893.852,488.299 881.587,483.78 871.259,478.616C854.476,469.579 851.248,469.579 842.211,477.971C833.82,487.008 831.237,487.008 820.909,477.325C810.581,467.642 809.936,465.706 818.973,456.023C828.01,446.341 828.01,443.113 818.973,426.33C813.809,416.002 809.29,403.737 809.29,399.864C809.29,395.345 802.19,391.472 793.152,391.472C779.597,391.472 777.015,388.245 777.015,372.107C777.015,356.615 779.597,352.742 791.861,352.742C802.19,352.742 808.645,346.287 816.391,327.567C826.073,304.974 826.073,301.747 817.036,292.064C807.999,283.027 807.999,281.09 818.973,268.826C829.301,257.207 831.883,256.561 841.566,265.598C851.248,273.99 855.121,273.99 879.005,263.662C895.788,256.561 906.116,248.815 906.116,241.714C906.116,230.741 893.852,230.095 733.766,230.095L561.415,230.095L599.5,268.826C637.585,307.556 637.585,307.556 620.156,325.631C607.892,337.895 604.019,347.578 607.246,357.906C609.828,369.525 614.992,372.107 638.876,372.107C667.278,372.107 667.278,372.107 667.278,433.43C667.278,494.754 667.278,494.754 638.876,494.754C602.728,494.754 595.627,508.955 618.865,533.484C627.902,542.521 635.003,552.849 635.003,556.077C635.003,564.469 562.706,636.766 554.96,636.766C551.087,636.766 540.759,629.665 531.722,620.628C507.192,597.39 492.991,604.49 492.991,640.639C492.991,669.041 492.991,669.041 431.668,669.041C370.345,669.041 370.345,669.041 370.345,640.639C370.345,616.755 367.762,611.591 356.143,609.009C347.752,606.427 337.424,609.009 330.969,614.818C320.64,624.501 326.45,633.538 414.239,740.047L509.129,854.947L511.065,794.27C513.002,733.592 513.002,733.592 540.759,733.592ZM1067.49,696.798C1067.49,660.649 1067.49,660.649 1051.36,675.496C1042.32,683.888 1035.22,692.925 1035.22,695.507C1035.22,710.354 1049.42,733.592 1057.81,733.592C1065.56,733.592 1067.49,725.2 1067.49,696.798ZM454.261,607.718C454.261,593.517 457.488,585.125 462.652,585.125C467.171,585.125 482.017,579.315 496.219,572.215C521.393,559.305 521.393,559.305 537.531,575.442C553.669,591.58 553.669,591.58 571.743,574.151C589.817,556.723 589.817,556.723 573.68,539.939C557.542,523.156 557.542,523.156 570.452,497.981C577.553,483.78 583.362,468.933 583.362,464.415C583.362,459.251 591.754,456.023 605.955,456.023C627.902,456.023 628.548,455.378 628.548,430.203C628.548,405.674 627.902,404.383 607.892,404.383C588.526,404.383 585.299,401.155 571.743,370.816C557.542,337.895 557.542,337.895 571.743,322.403C585.944,306.911 585.944,306.911 568.516,290.128C551.732,272.699 551.732,272.699 536.24,286.9C521.393,301.101 521.393,301.101 487.827,286.9C456.843,273.99 454.261,270.762 454.261,251.397C454.261,230.741 453.615,230.095 428.44,230.095C403.265,230.095 402.62,230.741 402.62,251.397C402.62,270.762 400.038,273.99 369.053,286.9C335.487,301.101 335.487,301.101 322.577,288.191C309.667,275.281 309.667,275.281 291.592,292.71C273.518,310.138 273.518,310.138 286.428,323.694C299.339,337.25 299.339,337.25 285.137,370.816C272.227,401.801 269,404.383 249.634,404.383C228.978,404.383 228.333,405.028 228.333,430.203C228.333,455.378 228.978,456.023 249.634,456.023C269,456.023 272.227,458.605 285.137,489.59C299.339,523.156 299.339,523.156 282.555,540.585C265.127,558.659 265.127,558.659 281.264,578.024C297.402,596.744 297.402,596.744 316.767,578.024C335.487,558.659 335.487,558.659 369.053,573.506C399.392,587.061 402.62,590.289 402.62,609.654C402.62,629.665 403.911,630.31 428.44,630.31C453.615,630.31 454.261,629.665 454.261,607.718ZM252.862,509.6C251.571,503.791 247.698,497.981 243.179,496.69C238.661,494.754 237.37,498.627 239.306,507.018C243.179,523.156 256.09,525.093 252.862,509.6ZM971.313,441.177C1014.56,412.129 1019.73,351.451 982.932,314.657C916.445,248.17 807.999,327.567 851.248,411.483C873.841,454.087 930.646,468.288 971.313,441.177ZM254.153,349.514C254.153,346.287 250.925,347.578 247.698,352.742C244.47,357.906 241.243,365.652 241.243,368.88C241.243,372.753 244.47,370.816 247.698,365.652C250.925,360.488 254.153,353.387 254.153,349.514ZM1063.62,338.541C1052,299.165 1035.22,279.154 1026.18,294.001C1019.08,304.329 1044.26,352.742 1056.52,352.742C1065.56,352.742 1067.49,349.514 1063.62,338.541ZM1008.11,263.662C1010.04,256.561 986.805,242.36 959.694,233.968C948.074,230.095 944.847,232.032 944.847,241.069C944.847,248.17 953.884,256.561 969.376,263.016C995.197,274.635 1004.23,275.281 1008.11,263.662ZM363.889,249.461C369.053,246.233 370.99,243.005 367.117,243.005C363.889,243.005 356.143,246.233 350.979,249.461C345.815,252.688 344.524,255.916 347.752,255.916C351.625,255.916 358.725,252.688 363.889,249.461ZM528.494,243.005C540.113,230.095 539.468,230.095 516.875,230.095C501.383,230.095 492.991,233.323 492.991,238.487C492.991,259.143 511.711,261.725 528.494,243.005Z" style="fill:white;fill-rule:nonzero;"/>
        </g>
        <g transform="matrix(1.4142,0,0,1.42863,-30.7547,-30.3582)">
            <path d="M93,116C85.4,114.6 79.6,109.6 77.1,102.1C71.9,86.5 87.5,70.9 103.1,76.1C112,79.1 117.2,86.4 117.2,96.1C117.2,109.2 105.9,118.4 93,116ZM103.6,109.4C108.1,107.2 111.2,102.8 111.8,97.4C113.4,83.1 96.1,75 86,85.5C74.3,97.6 88.3,116.7 103.6,109.4Z" style="fill:white;fill-rule:nonzero;"/>
        </g>
        <g transform="matrix(1.4142,0,0,1.42863,-29.8195,-19.6226)">
            <path d="M108.081,87.036C108.081,86.256 107.448,85.623 106.669,85.623L103.843,85.623C103.063,85.623 102.43,86.256 102.43,87.036L102.43,89.862C102.43,90.641 103.063,91.274 103.843,91.274L106.669,91.274C107.448,91.274 108.081,90.641 108.081,89.862L108.081,87.036Z" style="fill:white;"/>
        </g>
        <g transform="matrix(1.4142,0,0,1.42863,-56.0049,-19.8802)">
            <path d="M108.081,87.036C108.081,86.256 107.448,85.623 106.669,85.623L103.843,85.623C103.063,85.623 102.43,86.256 102.43,87.036L102.43,89.862C102.43,90.641 103.063,91.274 103.843,91.274L106.669,91.274C107.448,91.274 108.081,90.641 108.081,89.862L108.081,87.036Z" style="fill:white;"/>
        </g>
        <g transform="matrix(1.4142,0,0,1.42863,-42.7409,-19.955)">
            <path d="M108.081,87.036C108.081,86.256 107.448,85.623 106.669,85.623L103.843,85.623C103.063,85.623 102.43,86.256 102.43,87.036L102.43,89.862C102.43,90.641 103.063,91.274 103.843,91.274L106.669,91.274C107.448,91.274 108.081,90.641 108.081,89.862L108.081,87.036Z" style="fill:white;"/>
        </g>
        <g transform="matrix(1.4142,0,0,1.42863,-42.7409,-6.21335)">
            <path d="M108.081,87.036C108.081,86.256 107.448,85.623 106.669,85.623L103.843,85.623C103.063,85.623 102.43,86.256 102.43,87.036L102.43,89.862C102.43,90.641 103.063,91.274 103.843,91.274L106.669,91.274C107.448,91.274 108.081,90.641 108.081,89.862L108.081,87.036Z" style="fill:white;"/>
        </g>
        <g transform="matrix(1.4142,0,0,1.42863,-42.7409,-33.6966)">
            <path d="M108.081,87.036C108.081,86.256 107.448,85.623 106.669,85.623L103.843,85.623C103.063,85.623 102.43,86.256 102.43,87.036L102.43,89.862C102.43,90.641 103.063,91.274 103.843,91.274L106.669,91.274C107.448,91.274 108.081,90.641 108.081,89.862L108.081,87.036Z" style="fill:white;"/>
        </g>
        <g transform="matrix(1.4142,0,0,1.42863,-30.7547,-30.3582)">
            <path d="M114.89,20.539C118.929,20.539 122.209,23.818 122.209,27.858C122.209,31.897 118.929,35.177 114.89,35.177C110.85,35.177 107.57,31.897 107.57,27.858C107.57,23.818 110.85,20.539 114.89,20.539ZM116.986,25.236C118.506,26.334 118.848,28.46 117.749,29.979C116.651,31.499 114.525,31.841 113.006,30.743C111.486,29.644 111.144,27.519 112.242,25.999C113.341,24.479 115.466,24.137 116.986,25.236Z" style="fill:white;"/>
        </g>
        <g transform="matrix(1.4142,0,0,1.42863,-30.7547,-30.3582)">
            <path d="M29.7,50.8C24.6,47.8 21.6,41.5 22.3,35.3C23.5,24.1 35,17.9 45.2,22.9C56.7,28.4 56.9,46 45.6,51.4C40.8,53.6 34.3,53.4 29.7,50.8ZM38.045,25.687C44.382,25.687 49.528,30.832 49.528,37.169C49.528,43.506 44.382,48.651 38.045,48.651C31.708,48.651 26.563,43.506 26.563,37.169C26.563,30.832 31.708,25.687 38.045,25.687Z" style="fill:white;"/>
        </g>
    </g>
</svg>
