<?xml version="1.0" standalone="no"?>
<!DOCTYPE svg PUBLIC "-//W3C//DTD SVG 20010904//EN"
 "http://www.w3.org/TR/2001/REC-SVG-20010904/DTD/svg10.dtd">
<svg version="1.0" xmlns="http://www.w3.org/2000/svg"
 width="560.000000pt" height="640.000000pt" viewBox="0 0 560.000000 640.000000"
 preserveAspectRatio="xMidYMid meet">

<g transform="translate(0.000000,640.000000) scale(0.100000,-0.100000)"
fill="#47C9AF" stroke="none">
<path d="M410 5984 c-203 -53 -364 -221 -399 -418 -8 -42 -11 -766 -11 -2376
0 -2040 2 -2323 15 -2375 52 -201 211 -360 402 -400 102 -22 4664 -22 4766 0
197 42 363 210 406 413 8 38 11 709 11 2375 0 2559 5 2370 -62 2507 -64 131
-217 248 -366 279 -38 8 -728 11 -2380 10 -2000 0 -2335 -2 -2382 -15z m793
-821 c298 -202 607 -411 686 -465 89 -60 148 -95 155 -90 20 16 721 584 738
600 16 14 24 10 90 -45 40 -32 206 -166 368 -298 162 -131 302 -244 311 -252
16 -13 182 95 1142 748 l247 169 73 0 c60 0 77 -4 95 -20 l22 -21 0 -2289 c0
-2277 0 -2290 -20 -2310 -20 -20 -33 -20 -2307 -20 l-2287 0 -23 22 -23 21 0
2289 c0 2275 0 2288 20 2308 16 16 33 20 95 20 l76 0 542 -367z m1467 353 c-8
-8 -158 -130 -334 -271 l-318 -257 -329 222 c-181 122 -362 244 -401 271 l-72
49 734 0 c629 0 732 -2 720 -14z m1709 10 c-5 -5 -770 -520 -786 -529 -6 -4
-146 102 -335 254 -177 143 -327 265 -332 270 -6 5 284 9 724 9 403 0 731 -2
729 -4z"/>
<path d="M960 3845 l0 -235 460 0 460 0 0 233 0 233 -460 2 -460 3 0 -236z"/>
<path d="M2190 3845 l0 -235 1225 0 1225 0 0 235 0 235 -1225 0 -1225 0 0
-235z"/>
<path d="M960 2915 l0 -235 460 0 460 0 0 233 0 233 -460 2 -460 3 0 -236z"/>
<path d="M2190 2915 l0 -235 1225 0 1225 0 0 235 0 235 -1225 0 -1225 0 0
-235z"/>
<path d="M3400 1975 l0 -235 620 0 620 0 0 235 0 235 -620 0 -620 0 0 -235z"/>
</g>
</svg>
