<?xml version="1.0" encoding="UTF-8" standalone="no"?>
<!DOCTYPE svg PUBLIC "-//W3C//DTD SVG 1.1//EN" "http://www.w3.org/Graphics/SVG/1.1/DTD/svg11.dtd">
<svg width="100%" height="100%" viewBox="0 0 1024 1024" version="1.1" xmlns="http://www.w3.org/2000/svg" xmlns:xlink="http://www.w3.org/1999/xlink" xml:space="preserve" xmlns:serif="http://www.serif.com/" style="fill-rule:evenodd;clip-rule:evenodd;stroke-linejoin:round;stroke-miterlimit:2;">
    <g transform="matrix(1.23968,0,0,1.23968,-121.605,-121.268)">
        <g id="Icon">
            <g transform="matrix(4.01003,0,0,3.10624,-1221.23,-745.643)">
                <rect x="255" y="176" width="354" height="457" style="fill:rgb(50,62,79);fill-opacity:0;"/>
            </g>
            <g id="cartspeedTopLeft" transform="matrix(1.07698,0,0,1,20.2305,-21.5389)">
                <g>
                    <g>
                        <g transform="matrix(0.461009,0,0,1,103.043,84.364)">
                            <path d="M592.29,337.312C592.29,329.362 579.291,322.908 563.279,322.908L225.584,322.908C209.573,322.908 196.573,329.362 196.573,337.312C196.573,345.261 209.573,351.715 225.584,351.715L563.279,351.715C579.291,351.715 592.29,345.261 592.29,337.312Z" style="fill:white;"/>
                        </g>
                        <g transform="matrix(0.349811,0,0,1,168.904,130.372)">
                            <path d="M592.29,337.312C592.29,329.362 575.159,322.908 554.057,322.908L234.806,322.908C213.705,322.908 196.573,329.362 196.573,337.312C196.573,345.261 213.705,351.715 234.806,351.715L554.057,351.715C575.159,351.715 592.29,345.261 592.29,337.312Z" style="fill:white;"/>
                        </g>
                        <g transform="matrix(0.461009,0,0,1,103.043,176.306)">
                            <path d="M592.29,337.312C592.29,329.362 579.291,322.908 563.279,322.908L225.584,322.908C209.573,322.908 196.573,329.362 196.573,337.312C196.573,345.261 209.573,351.715 225.584,351.715L563.279,351.715C579.291,351.715 592.29,345.261 592.29,337.312Z" style="fill:white;"/>
                        </g>
                    </g>
                </g>
            </g>
            <g transform="matrix(537.623,0,0,557.05,208,719.893)">
                <path d="M1.031,-0.286L1.124,-0.693C1.13,-0.722 1.108,-0.75 1.078,-0.75L0.311,-0.75L0.293,-0.838C0.289,-0.859 0.269,-0.875 0.247,-0.875L0.047,-0.875C0.021,-0.875 0,-0.854 0,-0.828L0,-0.797C0,-0.771 0.021,-0.75 0.047,-0.75L0.183,-0.75L0.321,-0.079C0.288,-0.06 0.266,-0.025 0.266,0.016C0.266,0.076 0.315,0.125 0.375,0.125C0.435,0.125 0.484,0.076 0.484,0.016C0.484,-0.015 0.472,-0.043 0.452,-0.062L0.861,-0.062C0.841,-0.043 0.828,-0.015 0.828,0.016C0.828,0.076 0.877,0.125 0.937,0.125C0.998,0.125 1.047,0.076 1.047,0.016C1.047,-0.028 1.022,-0.065 0.985,-0.083L0.996,-0.13C1.003,-0.16 0.98,-0.187 0.95,-0.187L0.426,-0.187L0.413,-0.25L0.986,-0.25C1.008,-0.25 1.027,-0.265 1.031,-0.286Z" style="fill:white;fill-rule:nonzero;"/>
                <g>
                    <clipPath id="_clip1">
                        <path d="M1.031,-0.286L1.124,-0.693C1.13,-0.722 1.108,-0.75 1.078,-0.75L0.311,-0.75L0.293,-0.838C0.289,-0.859 0.269,-0.875 0.247,-0.875L0.047,-0.875C0.021,-0.875 0,-0.854 0,-0.828L0,-0.797C0,-0.771 0.021,-0.75 0.047,-0.75L0.183,-0.75L0.321,-0.079C0.288,-0.06 0.266,-0.025 0.266,0.016C0.266,0.076 0.315,0.125 0.375,0.125C0.435,0.125 0.484,0.076 0.484,0.016C0.484,-0.015 0.472,-0.043 0.452,-0.062L0.861,-0.062C0.841,-0.043 0.828,-0.015 0.828,0.016C0.828,0.076 0.877,0.125 0.937,0.125C0.998,0.125 1.047,0.076 1.047,0.016C1.047,-0.028 1.022,-0.065 0.985,-0.083L0.996,-0.13C1.003,-0.16 0.98,-0.187 0.95,-0.187L0.426,-0.187L0.413,-0.25L0.986,-0.25C1.008,-0.25 1.027,-0.265 1.031,-0.286Z"/>
                    </clipPath>
                    <g clip-path="url(#_clip1)">
                        <g id="cartspeedTopLeft1" serif:id="cartspeedTopLeft" transform="matrix(0.00175596,0,0,0.00179517,-0.283235,-1.331)">
                            <g>
                                <g transform="matrix(0.560063,0,0,1,83.5718,84.364)">
                                    <path d="M592.29,337.312C592.29,329.362 580.083,322.908 565.048,322.908L223.816,322.908C208.78,322.908 196.573,329.362 196.573,337.312C196.573,345.261 208.78,351.715 223.816,351.715L565.048,351.715C580.083,351.715 592.29,345.261 592.29,337.312Z" style="fill:rgb(50,62,79);"/>
                                </g>
                                <g transform="matrix(0.373012,0,0,1,164.344,130.372)">
                                    <path d="M592.29,337.312C592.29,329.362 573.962,322.908 551.387,322.908L237.477,322.908C214.902,322.908 196.573,329.362 196.573,337.312C196.573,345.261 214.902,351.715 237.477,351.715L551.387,351.715C573.962,351.715 592.29,345.261 592.29,337.312Z" style="fill:rgb(50,62,79);"/>
                                </g>
                                <g transform="matrix(0.394684,0,0,1,116.081,176.306)">
                                    <path d="M592.29,337.312C592.29,329.362 574.968,322.908 553.633,322.908L235.231,322.908C213.895,322.908 196.573,329.362 196.573,337.312C196.573,345.261 213.895,351.715 235.231,351.715L553.633,351.715C574.968,351.715 592.29,345.261 592.29,337.312Z" style="fill:rgb(50,62,79);"/>
                                </g>
                            </g>
                        </g>
                    </g>
                </g>
            </g>
            <g id="positionFrame" transform="matrix(1,0,0,1,-52,-51)">
                <g transform="matrix(1,0,0,1,13.5682,9.14436)">
                    <path d="M170.665,298.488L170.665,177.535L294.493,177.535C288.721,164.939 275.988,156.199 261.231,156.199L187.923,156.199C167.693,156.199 151.269,172.623 151.269,192.853L151.269,266.161C151.269,280.151 159.125,292.322 170.665,298.488Z" style="fill:white;"/>
                </g>
                <g transform="matrix(6.12323e-17,1,-1,6.12323e-17,1115.77,13.6067)">
                    <path d="M170.665,298.488L170.665,177.535L294.493,177.535C288.721,164.939 275.988,156.199 261.231,156.199L187.923,156.199C167.693,156.199 151.269,172.623 151.269,192.853L151.269,266.161C151.269,280.151 159.125,292.322 170.665,298.488Z" style="fill:white;"/>
                </g>
                <g transform="matrix(-1,-1.22465e-16,1.22465e-16,-1,1112.64,1114.51)">
                    <path d="M170.665,298.488L170.665,177.535L294.493,177.535C288.721,164.939 275.988,156.199 261.231,156.199L187.923,156.199C167.693,156.199 151.269,172.623 151.269,192.853L151.269,266.161C151.269,280.151 159.125,292.322 170.665,298.488Z" style="fill:white;"/>
                </g>
                <g transform="matrix(6.12323e-17,-1,1,6.12323e-17,10.4316,1110.05)">
                    <path d="M170.665,298.488L170.665,177.535L294.493,177.535C288.721,164.939 275.988,156.199 261.231,156.199L187.923,156.199C167.693,156.199 151.269,172.623 151.269,192.853L151.269,266.161C151.269,280.151 159.125,292.322 170.665,298.488Z" style="fill:white;"/>
                </g>
            </g>
            <g transform="matrix(235.305,0,0,235.305,476.644,535.776)">
                <path d="M0,-0.437L0.375,-0.437L0.375,-0.812L0,-0.812L0,-0.437ZM0.125,-0.687L0.25,-0.687L0.25,-0.562L0.125,-0.562L0.125,-0.687ZM0.5,-0.812L0.5,-0.437L0.875,-0.437L0.875,-0.812L0.5,-0.812ZM0.75,-0.562L0.625,-0.562L0.625,-0.687L0.75,-0.687L0.75,-0.562ZM0,0.062L0.375,0.062L0.375,-0.312L0,-0.312L0,0.062ZM0.125,-0.187L0.25,-0.187L0.25,-0.062L0.125,-0.062L0.125,-0.187ZM0.812,-0.312L0.812,-0.25L0.687,-0.25L0.687,-0.312L0.5,-0.312L0.5,0.062L0.625,0.062L0.625,-0.125L0.75,-0.125L0.75,-0.062L0.875,-0.062L0.875,-0.312L0.812,-0.312ZM0.812,-0L0.812,0.062L0.875,0.062L0.875,-0L0.812,-0ZM0.687,-0L0.687,0.062L0.75,0.062L0.75,-0L0.687,-0Z" style="fill:rgb(50,62,79);fill-rule:nonzero;"/>
            </g>
        </g>
    </g>
</svg>
